<?xml version="1.0" standalone="no"?>
<!DOCTYPE svg PUBLIC "-//W3C//DTD SVG 20010904//EN"
 "http://www.w3.org/TR/2001/REC-SVG-20010904/DTD/svg10.dtd">
<svg version="1.0" xmlns="http://www.w3.org/2000/svg"
 width="74.000000pt" height="74.000000pt" viewBox="0 0 74.000000 74.000000"
 preserveAspectRatio="xMidYMid meet">
<metadata>
Created by potrace 1.11, written by Peter Selinger 2001-2013
</metadata>
<g transform="translate(0.000000,74.000000) scale(0.100000,-0.100000)"
fill="#000000" stroke="none">
<path d="M252 720 c-212 -75 -311 -315 -212 -517 35 -70 104 -138 177 -173 73
-36 204 -40 284 -9 84 31 167 108 205 191 26 56 29 74 29 158 0 87 -3 101 -32
161 -39 79 -102 141 -181 177 -75 34 -192 39 -270 12z m-28 -292 c-43 -106
-81 -197 -85 -202 -12 -14 -46 113 -43 161 5 62 39 134 82 175 40 39 115 81
120 68 2 -4 -32 -95 -74 -202z m306 163 c102 -74 141 -203 98 -320 -11 -29
-23 -49 -28 -44 -9 10 -160 390 -160 403 0 13 46 -7 90 -39z m-122 -203 c17
-45 29 -84 26 -87 -2 -2 -18 8 -34 24 l-30 29 -30 -29 c-16 -16 -32 -26 -34
-24 -7 6 56 169 64 169 4 0 21 -37 38 -82z m-127 -208 c34 -19 115 -21 160 -6
38 13 44 13 54 -1 8 -10 20 -14 34 -10 38 10 18 -14 -34 -42 -74 -38 -169 -37
-250 4 -55 27 -58 30 -32 33 16 2 31 10 34 18 6 17 9 17 34 4z"/>
</g>
</svg>
