<svg xmlns="http://www.w3.org/2000/svg" viewBox="0 0 115.46 103.83"><defs><style>.cls-1{fill:#e8b93f;}</style></defs><title>Ресурс 14</title><g id="Слой_2" data-name="Слой 2"><g id="Слой_3" data-name="Слой 3"><path class="cls-1" d="M51,94.68l32.73-7.39v3.17L53.86,97.14a4.86,4.86,0,0,1-1.41-1.06C52.1,95.74,51.75,95,51,94.68Z"/><path class="cls-1" d="M7.75,42.59,38,34.85c12,2.11,23.58,4.58,35.55,7,1.41.35,1.76,6.69-.35,9.5L70.05,53.5c1.76,0,3.87.35,5.63.35a12.86,12.86,0,0,1,0,10.21l-7.74,5.28,16.19,4.22v3.17l-48.57,9.5c-2.46,2.82-2.11,8.45.7,11.62l7.39-1.41a10.7,10.7,0,0,0,1.76,2.46L36.62,101c-1.41.35-1.76.35-3.52-.7C22.54,94,12.33,87.29,1.42,81,0,77.79-1,72.51,1.77,69l2.82-1.06-.35,1.76,41.53,8.8c2.46-1.76,2.11-9.5.7-9.86L4.59,60.89V57l3.17.35L7.4,53.85C20.07,57,33.1,60.54,45.77,63.71c1.76-1.06,2.11-6,.35-8.8L7.4,46.46Z"/><line class="cls-1" x1="37.32" y1="87.99" x2="82.02" y2="79.19"/><polygon class="cls-1" points="38.02 87.29 82.02 78.49 82.02 78.49 82.02 79.55 38.02 88.34 38.02 87.29"/><line class="cls-1" x1="37.67" y1="90.1" x2="82.02" y2="81.31"/><polygon class="cls-1" points="38.02 89.4 82.02 80.95 82.02 82.01 38.02 90.46 38.02 89.4"/><line class="cls-1" x1="37.67" y1="92.57" x2="82.37" y2="83.77"/><path class="cls-1" d="M38,91.86l44-8.8v1.41L48.58,90.81a11.37,11.37,0,0,0,3.52,6,15.16,15.16,0,0,0,3.52,2.46,20.07,20.07,0,0,1-4.58.35c-.7,1.76-1.76,2.82-2.46,4.22,0,0-.35-1.41-.7-3.17-1.06-1.41-3.17-3.52-3.87-5.28A21.87,21.87,0,0,1,43,91.86L38,92.92Z"/><line class="cls-1" x1="38.02" y1="94.68" x2="82.37" y2="85.88"/><polygon class="cls-1" points="49.64 91.86 82.02 85.53 82.02 86.58 49.99 92.92 49.99 92.92 49.99 92.92 49.99 92.92 49.99 92.92 49.99 92.92 49.99 92.92 49.99 92.92 49.99 92.92 49.99 92.92 49.99 92.57 49.99 92.57 49.99 92.57 49.99 92.57 49.99 92.57 49.99 92.57 49.99 92.57 49.99 92.57 49.99 92.57 49.99 92.57 49.99 92.57 49.99 92.57 49.99 92.57 49.99 92.57 49.99 92.57 49.99 92.57 49.99 92.57 49.99 92.57 49.99 92.57 49.99 92.57 49.99 92.57 49.99 92.57 49.99 92.57 49.99 92.57 49.99 92.57 49.99 92.57 49.99 92.22 49.99 92.22 49.99 92.22 49.99 92.22 49.99 92.22 49.99 92.22 49.99 92.22 49.99 92.22 49.99 92.22 49.99 92.22 49.99 92.22 49.99 92.22 49.99 92.22 49.99 92.22 49.99 92.22 49.99 92.22 49.99 92.22 49.99 92.22 49.99 92.22 49.99 92.22 49.99 92.22 49.99 92.22 49.99 92.22 49.99 92.22 49.99 92.22 49.99 91.86 49.99 91.86 49.64 91.86 49.64 91.86 49.64 91.86 49.64 91.86 49.64 91.86 49.64 91.86 49.64 91.86 49.64 91.86"/><polygon class="cls-1" points="38.02 93.98 42.6 93.27 42.6 93.27 42.6 93.27 42.6 93.27 42.6 93.27 42.6 93.27 42.6 93.27 42.6 93.27 42.6 93.27 42.6 93.27 42.6 93.27 42.6 93.27 42.6 93.27 42.6 93.62 42.6 93.62 42.6 93.62 42.6 93.62 42.6 93.62 42.6 93.62 42.6 93.62 42.6 93.62 42.6 93.62 42.6 93.62 42.6 93.62 42.6 93.62 42.6 93.62 42.6 93.62 42.6 93.62 42.6 93.62 42.6 93.62 42.6 93.62 42.6 93.62 42.6 93.62 42.6 93.62 42.6 93.62 42.6 93.62 42.6 93.62 42.6 93.62 42.6 93.62 42.6 93.62 42.6 93.98 42.6 93.98 42.6 93.98 42.6 93.98 42.6 93.98 42.6 93.98 42.6 93.98 42.6 93.98 42.6 93.98 42.6 93.98 42.6 93.98 42.6 93.98 42.6 93.98 42.6 93.98 42.6 93.98 42.6 93.98 42.6 93.98 42.6 93.98 42.6 93.98 42.6 93.98 42.6 93.98 42.6 93.98 42.6 93.98 42.6 93.98 42.6 93.98 42.6 93.98 42.6 94.33 42.6 94.33 42.6 94.33 42.6 94.33 42.6 94.33 42.6 94.33 42.6 94.33 42.6 94.33 42.6 94.33 42.6 94.33 42.6 94.33 42.6 94.33 42.6 94.33 42.6 94.33 42.6 94.33 38.02 95.38 38.02 93.98"/><path class="cls-1" d="M113.7,36.25l-.35,1.06,1.06.35v-.35c0-.35.35-.35.7-.35h0l.35.35L113.7,52.8a.34.34,0,0,1-.35.35h0c-.35,0-.35,0-.35-.35l1.41-13.37h-1.06L111.94,52.8l-4.22-.35,1.76-16.89a1.61,1.61,0,0,1,1.76-1.41V33.09a.76.76,0,0,1,.7-.7h0c.35.35.7.35.35.7v1.06A2.38,2.38,0,0,1,113.7,36.25Z"/><path class="cls-1" d="M89.06,39.77l1.41,15.49c-.35,0-.7-.35-1.06-.35.7,12,1.41,23.93,1.76,35.55a49.85,49.85,0,0,0,20.41,0c.7-11.62,1.06-23.58,1.76-35.55-.7,0-1.06.35-1.76.35l.35-1.76-4.22-.35-.35,3.17H106V0H96.8V56.67c-.7,0-1.06-.35-1.76-.35L93.28,39.42Zm12-38h3.87v.7H101Zm1.76,2.82h2.11V5.63h-2.11Zm0,3.52h2.11v.7h-2.11Zm0,3.17h2.11V12h-2.11Zm0,3.17h2.11v.7h-2.11ZM101,17.6h3.87v.7H101Zm1.76,3.17h2.11v1.06h-2.11Zm0,3.17h2.11V25h-2.11Zm0,3.52h2.11v.7h-2.11Zm0,3.17h2.11v.7h-2.11ZM101,33.79h3.87v.7H101ZM102.79,37h2.11v.7h-2.11Zm0,3.17h2.11v1.06h-2.11Zm0,3.52h2.11v.7h-2.11Zm0,3.17h2.11v.7h-2.11ZM101,50h3.87v.7H101Zm1.76,3.17h2.11v.7h-2.11Z"/><path class="cls-1" d="M88.71,36.61l.35,2.46,4.22-.7-.35-2.11C92.58,34.49,88.71,34.85,88.71,36.61Z"/></g></g></svg>