<svg xmlns="http://www.w3.org/2000/svg" viewBox="0 0 87 48"><defs><style>.cls-1{fill:#e8b93f;}</style></defs><title>Ресурс 10</title><g id="Слой_2" data-name="Слой 2"><g id="Слой_3" data-name="Слой 3"><path class="cls-1" d="M32.24,33.7a7.15,7.15,0,1,0,7.26,7.16A7.21,7.21,0,0,0,32.24,33.7Zm0,10.73a3.57,3.57,0,1,1,3.63-3.57A3.61,3.61,0,0,1,32.24,44.43ZM87,28.41V36a3.47,3.47,0,0,1-3.5,3.45H79.75a9.63,9.63,0,0,0-19,0h-19a9.63,9.63,0,0,0-19,0H18A3.47,3.47,0,0,1,14.54,36V28.41ZM70.25,33.7a7.15,7.15,0,1,0,7.26,7.16A7.22,7.22,0,0,0,70.25,33.7Zm0,10.73a3.57,3.57,0,1,1,3.63-3.57A3.61,3.61,0,0,1,70.25,44.43Zm15.37-23.7L71.86,7.34A4.72,4.72,0,0,0,68.58,6H61.63V3.45A3.47,3.47,0,0,0,58.13,0H18a3.48,3.48,0,0,0-3.5,3.45V4L.33,5.6,25.51,8.82,0,11.32l25.42,3.56L0,17l14.54,2.7v6.77H87V24A4.58,4.58,0,0,0,85.62,20.73Zm-6,.45H66.3a.54.54,0,0,1-.55-.54V10.52A.54.54,0,0,1,66.3,10h2.53a.6.6,0,0,1,.39.15L80,20.25A.54.54,0,0,1,79.62,21.18Z"/></g></g></svg>