<svg xmlns="http://www.w3.org/2000/svg" viewBox="0 0 61 72"><defs><style>.cls-1{fill:#e8b93f;}</style></defs><title>Ресурс 13</title><g id="Слой_2" data-name="Слой 2"><g id="Слой_3" data-name="Слой 3"><path class="cls-1" d="M30.5,40.61c4.9,0,16.42-6,16.42-20.3C46.92,9.09,45.43,0,30.5,0S14.08,9.09,14.08,20.3C14.08,34.63,25.6,40.61,30.5,40.61Zm-14-23.69c1.15-2.26,3.65-4.87,9-4.76,0,0,3.2,7.86,18.9,4.33.06,1.26.08,2.54.08,3.81a18.22,18.22,0,0,1-5.61,13.75c-3.22,3-6.8,4.13-8.42,4.13s-5.2-1.1-8.42-4.13A18.22,18.22,0,0,1,16.47,20.3C16.47,19.17,16.49,18,16.53,16.92ZM61,61.43c-.84-5.28-2.56-12.09-6-14.51-2.36-1.65-10.61-6.12-14.13-8l-.06,0a1.14,1.14,0,0,0-1.25.11,14.88,14.88,0,0,1-6,2.94,1.16,1.16,0,0,0-.83.73L30.5,48.46l-2.18-5.83a1.16,1.16,0,0,0-.83-.73,14.88,14.88,0,0,1-6-2.94,1.14,1.14,0,0,0-1.25-.11C16.76,40.74,8.41,45.3,6.05,46.91c-4,2.72-5.73,12.57-6,14.52A1.18,1.18,0,0,0,.07,62c.14.41,3.8,10,30.44,10S60.8,62.41,60.94,62A1.18,1.18,0,0,0,61,61.43ZM48.72,58.2,43.5,59.85,38.29,58.2V55.36H48.72Z"/></g></g></svg>