<svg xmlns="http://www.w3.org/2000/svg" viewBox="0 0 55 58"><defs><style>.cls-1{fill:#e8b93f;}</style></defs><title>Ресурс 12</title><g id="Слой_2" data-name="Слой 2"><g id="Слой_3" data-name="Слой 3"><path class="cls-1" d="M13.55,26.7a13.32,13.32,0,0,0,10.19-4.19,13.55,13.55,0,0,0,3.42-9.17C27.16,6.72,22.48,0,13.55,0A13.24,13.24,0,0,0,3.4,4.19,13.58,13.58,0,0,0,0,13.35C0,20,4.65,26.7,13.55,26.7Zm0-20.5a6.84,6.84,0,0,1,7.12,7.15,7.32,7.32,0,0,1-1.75,4.88,6.82,6.82,0,0,1-5.29,2.18,6.92,6.92,0,0,1-7.31-7.15C6.32,9.75,8.56,6.21,13.55,6.21ZM50.87,5,46,5.15a3.86,3.86,0,0,0-2.46,1.14L3.39,51.6A.86.86,0,0,0,4,53.07H9.31A3.75,3.75,0,0,0,11.76,52L51.7,6.65C52.25,6,52.21,5,50.87,5ZM41.65,31.8a13,13,0,0,0-10,4.11,13.32,13.32,0,0,0-3.34,9c0,6.51,4.57,13.1,13.29,13.1a13.07,13.07,0,0,0,10-4.11,13.29,13.29,0,0,0,3.36-9C55,38.39,50.41,31.8,41.65,31.8Zm5.36,18A6.79,6.79,0,0,1,41.73,52c-4.88,0-7.11-3.72-7.11-7.17a7.37,7.37,0,0,1,1.75-4.9,6.79,6.79,0,0,1,5.28-2.18c4.88,0,7.11,3.72,7.11,7.17A7.37,7.37,0,0,1,47,49.81Z"/></g></g></svg>