<svg xmlns="http://www.w3.org/2000/svg" viewBox="0 0 71 49"><defs><style>.cls-1{fill:#e8b93f;}</style></defs><title>Ресурс 11</title><g id="Слой_2" data-name="Слой 2"><g id="Слой_3" data-name="Слой 3"><path class="cls-1" d="M0,44.55A4.45,4.45,0,0,0,4.44,49H66.56A4.45,4.45,0,0,0,71,44.55V17.82H0ZM46.59,26.73A6.6,6.6,0,0,1,51,28.46a6.6,6.6,0,0,1,4.44-1.73,6.68,6.68,0,0,1,0,13.36A6.6,6.6,0,0,1,51,38.36a6.6,6.6,0,0,1-4.44,1.73,6.68,6.68,0,0,1,0-13.36Zm-35.5,4.45H24.41a2.23,2.23,0,0,1,0,4.45H11.09a2.23,2.23,0,0,1,0-4.45ZM66.56,0H4.44A4.45,4.45,0,0,0,0,4.45V8.91H71V4.45A4.45,4.45,0,0,0,66.56,0Z"/></g></g></svg>