<svg xmlns="http://www.w3.org/2000/svg" viewBox="0 0 52 58"><defs><style>.cls-1{fill:#e8b93f;}</style></defs><title>Ресурс 9</title><g id="Слой_2" data-name="Слой 2"><g id="Слой_3" data-name="Слой 3"><path class="cls-1" d="M1.3,48.77h9.1v7.91a1.29,1.29,0,0,0,.37.95,1.25,1.25,0,0,0,.93.37h6.78a1.27,1.27,0,0,0,.91-.37,1.25,1.25,0,0,0,.39-.95V48.77H40.3a1.26,1.26,0,0,0,.93-.37,1.29,1.29,0,0,0,.37-.95V42.18a1.29,1.29,0,0,0-.37-.95,1.25,1.25,0,0,0-.93-.37H19.78V36H33.59q8.12,0,13.26-5A17.35,17.35,0,0,0,52,18,17.36,17.36,0,0,0,46.86,5Q41.72,0,33.59,0H11.7a1.26,1.26,0,0,0-.93.37,1.3,1.3,0,0,0-.37.95V27.23H1.3a1.22,1.22,0,0,0-.93.39,1.31,1.31,0,0,0-.37.93v6.14a1.29,1.29,0,0,0,.37.95A1.26,1.26,0,0,0,1.3,36h9.1v4.86H1.3a1.25,1.25,0,0,0-.93.37,1.29,1.29,0,0,0-.37.95v5.27a1.29,1.29,0,0,0,.37.95A1.26,1.26,0,0,0,1.3,48.77Zm18.48-40h13a9.57,9.57,0,0,1,6.95,2.55A8.87,8.87,0,0,1,42.37,18a8.86,8.86,0,0,1-2.64,6.67,9.56,9.56,0,0,1-6.95,2.55h-13Z"/></g></g></svg>