<svg xmlns="http://www.w3.org/2000/svg" viewBox="0 0 45 45"><defs><style>.cls-1{fill:#e8b93f;fill-rule:evenodd;}.cls-2{fill:#fff;}</style></defs><title>Ресурс 24</title><g id="Слой_2" data-name="Слой 2"><g id="Слой_3" data-name="Слой 3"><path class="cls-1" d="M0,0H45V45H0Z"/><path class="cls-2" d="M23.4,9V9H21.6V9A13.5,13.5,0,0,0,9,21.6H9v1.8H9A13.5,13.5,0,0,0,21.6,36v0h1.8v0A13.5,13.5,0,0,0,36,23.4h0V21.6h0A13.5,13.5,0,0,0,23.4,9Zm-5.95,2.91a14.32,14.32,0,0,0-2.12,4.26h-2.7A11.77,11.77,0,0,1,17.45,11.94ZM11.7,18h3.16a21.46,21.46,0,0,0-.44,3.6H10.83A11.58,11.58,0,0,1,11.7,18Zm-.86,5.4h3.58a21.45,21.45,0,0,0,.44,3.6H11.7A11.58,11.58,0,0,1,10.83,23.4Zm1.8,5.4h2.69a14.29,14.29,0,0,0,2.12,4.26A11.76,11.76,0,0,1,12.64,28.8Zm9,5.28c-1.85-.49-3.44-2.48-4.41-5.28H21.6Zm0-7.08H16.68a20.16,20.16,0,0,1-.47-3.6H21.6Zm0-5.4H16.22a20.16,20.16,0,0,1,.47-3.6H21.6Zm0-5.4H17.19c1-2.8,2.56-4.79,4.41-5.28Zm10.76,0H29.67a14.3,14.3,0,0,0-2.12-4.26A11.76,11.76,0,0,1,32.36,16.2Zm-9-5.28c1.85.49,3.44,2.48,4.41,5.28H23.4Zm0,7.08h4.91a20.21,20.21,0,0,1,.47,3.6H23.4Zm0,5.4h5.38a20.06,20.06,0,0,1-.47,3.6H23.4Zm0,10.68V28.8h4.41C26.84,31.6,25.25,33.59,23.4,34.08Zm4.15-1a14.35,14.35,0,0,0,2.12-4.26h2.69A11.75,11.75,0,0,1,27.55,33.06ZM33.3,27H30.14a21.46,21.46,0,0,0,.44-3.6h3.58A11.6,11.6,0,0,1,33.3,27Zm-2.72-5.4a21.47,21.47,0,0,0-.44-3.6H33.3a11.61,11.61,0,0,1,.86,3.6Z"/></g></g></svg>