<svg xmlns="http://www.w3.org/2000/svg" viewBox="0 0 45 45"><defs><style>.cls-1{fill:#e8b93f;fill-rule:evenodd;}.cls-2{fill:#fff;}</style></defs><title>Ресурс 22</title><g id="Слой_2" data-name="Слой 2"><g id="Слой_3" data-name="Слой 3"><path class="cls-1" d="M0,0H45V45H0Z"/><path class="cls-2" d="M30.69,24.8A2.52,2.52,0,0,0,28.87,24,2.6,2.6,0,0,0,27,24.8l-1.7,1.69-.42-.21c-.19-.1-.38-.19-.53-.28a18.48,18.48,0,0,1-4.44-4,10.88,10.88,0,0,1-1.46-2.29c.44-.4.85-.82,1.25-1.22l.45-.46a2.45,2.45,0,0,0,0-3.71l-1.47-1.47-.5-.51c-.32-.33-.66-.68-1-1a2.56,2.56,0,0,0-1.81-.79,2.65,2.65,0,0,0-1.83.79h0l-1.83,1.84a3.92,3.92,0,0,0-1.17,2.49,9.37,9.37,0,0,0,.69,4,23.07,23.07,0,0,0,4.12,6.85,25.35,25.35,0,0,0,8.45,6.58,13.19,13.19,0,0,0,4.74,1.39h.34A4.07,4.07,0,0,0,32,33.15l0,0a12.14,12.14,0,0,1,.94-1c.23-.22.47-.45.7-.69a2.67,2.67,0,0,0,.81-1.86,2.57,2.57,0,0,0-.83-1.84Zm1.93,5.65h0c-.21.23-.43.43-.66.65a14.12,14.12,0,0,0-1,1.07,2.6,2.6,0,0,1-2,.85h-.25a11.72,11.72,0,0,1-4.2-1.26,23.93,23.93,0,0,1-8-6.2,21.76,21.76,0,0,1-3.88-6.43,7.63,7.63,0,0,1-.6-3.36,2.46,2.46,0,0,1,.74-1.59l1.84-1.83A1.23,1.23,0,0,1,15.4,12a1.16,1.16,0,0,1,.79.38l0,0c.33.31.64.62,1,1l.51.52,1.47,1.46a1,1,0,0,1,0,1.66l-.46.46c-.45.46-.88.89-1.35,1.31l0,0A1.09,1.09,0,0,0,17,20l0,0a11.75,11.75,0,0,0,1.74,2.83h0a19.76,19.76,0,0,0,4.79,4.34,7.34,7.34,0,0,0,.66.36c.19.1.38.19.53.28l.06,0a1.18,1.18,0,0,0,.53.13,1.16,1.16,0,0,0,.82-.37L28,25.82a1.22,1.22,0,0,1,.81-.4,1.1,1.1,0,0,1,.78.39h0l3,3A1.06,1.06,0,0,1,32.62,30.45Z"/></g></g></svg>