<svg xmlns="http://www.w3.org/2000/svg" viewBox="0 0 58.2 54.1"><defs><style>.cls-1{fill:#e8b93f;}</style></defs><title>Ресурс 17</title><g id="Слой_2" data-name="Слой 2"><g id="Слой_3" data-name="Слой 3"><path class="cls-1" d="M51.3,0H6.7A6.51,6.51,0,0,0,0,6.4V43a6.61,6.61,0,0,0,4.7,6.1v2.6a2.43,2.43,0,0,0,2.4,2.4h5.1a2.43,2.43,0,0,0,2.4-2.4V49.3H43.5v2.4a2.43,2.43,0,0,0,2.4,2.4H51a2.43,2.43,0,0,0,2.4-2.4V49a6.4,6.4,0,0,0,4.8-6.1V6.4A6.82,6.82,0,0,0,51.3,0ZM5.6,10.4a5.59,5.59,0,0,1,5.6-5.6H46.7a5.59,5.59,0,0,1,5.6,5.6v2.1H49.2v-.2a4.91,4.91,0,0,0-4.9-4.9H13.5a4.91,4.91,0,0,0-4.9,4.9V37a4.91,4.91,0,0,0,4.9,4.9H44.3A4.91,4.91,0,0,0,49.2,37v-.4h3.1v2.3a5.59,5.59,0,0,1-5.6,5.6H11.3a5.59,5.59,0,0,1-5.6-5.6V10.4ZM52.4,28.1H49.3v-7h3.1ZM35.7,20A4,4,0,1,1,41,23.8v8.1a1.4,1.4,0,0,1-2.8,0V23.7A3.92,3.92,0,0,1,35.7,20Zm-6.1,4.7a7.8,7.8,0,1,1-7.8-7.8A7.81,7.81,0,0,1,29.6,24.7Z"/><path class="cls-1" d="M16.1,24.7A5.7,5.7,0,1,0,21.8,19,5.7,5.7,0,0,0,16.1,24.7Zm2.3.1-1.1-.1c-.2,0-.3-.2-.3-.4s.2-.3.4-.3l1.1.1c.2,0,.3.2.3.4S18.6,24.8,18.4,24.8Zm3.8,4.5a.4.4,0,1,1-.8,0V28.2a.4.4,0,1,1,.8,0Zm3.1-4.7,1.1.1c.2,0,.3.2.3.4s-.2.3-.4.3l-1.1-.1c-.2,0-.3-.2-.3-.4S25.1,24.6,25.3,24.6Zm-.7.1a2.8,2.8,0,1,1-2.8-2.8A2.73,2.73,0,0,1,24.6,24.7Zm-2.4-4.6v1.1a.4.4,0,1,1-.8,0V20.1a.43.43,0,0,1,.4-.4C22,19.8,22.2,19.9,22.2,20.1Z"/></g></g></svg>