<svg xmlns="http://www.w3.org/2000/svg" viewBox="0 0 82.73 62.05"><defs><style>.cls-1{fill:#e8b93f;}</style></defs><title>Ресурс 18</title><g id="Слой_2" data-name="Слой 2"><g id="Слой_3" data-name="Слой 3"><path class="cls-1" d="M57.91,30.61V7.45H24.82V30.61ZM27.3,9.1H38.05v5H27.3Zm9.1,4.14h.83V9.93H36.4ZM9.1,44.67h.83V41.36H9.1Zm-1.65,0h.83V41.36H7.45ZM60.39,0H22.34V6.62H60.39ZM28.13,13.24H29V9.93h-.83Zm1.65,0h.83V9.93h-.83Zm-19,31.44h.83V41.36h-.83ZM33.09,13.24h.83V9.93h-.83Zm1.65,0h.83V9.93h-.83Zm-3.31,0h.83V9.93h-.83ZM5.79,44.67h.83V41.36H5.79Zm51.29,0h.83V41.36h-.83Zm-3.31,0h.83V41.36h-.83Zm1.65,0h.83V41.36h-.83ZM47.15,62H80.25V38.88H47.15Zm2.48-21.51H60.39v5H49.64Zm-5-9.1v6.62H82.73V31.44ZM12.41,44.67h.83V41.36h-.83ZM2.48,62H35.57V38.88H2.48ZM5,40.54H15.72v5H5Zm47.15,4.14h.83V41.36h-.83Zm-1.65,0h.83V41.36h-.83ZM0,38.05H38.05V31.44H0Zm14.06,6.62h.83V41.36h-.83Zm44.67,0h.83V41.36h-.83Z"/></g></g></svg>