<svg xmlns="http://www.w3.org/2000/svg" viewBox="0 0 51.2 68.59"><defs><style>.cls-1{fill:#e8b93f;}</style></defs><title>Ресурс 15</title><g id="Слой_2" data-name="Слой 2"><g id="Слой_3" data-name="Слой 3"><path class="cls-1" d="M39.71,26.11H11.49A11.49,11.49,0,0,0,0,37.59V56A12.63,12.63,0,0,0,12.63,68.59H38.56A12.63,12.63,0,0,0,51.2,56V37.59A11.49,11.49,0,0,0,39.71,26.11Zm5.47,30.43a6.7,6.7,0,0,1-6.7,6.7H12.72A6.7,6.7,0,0,1,6,56.53V38.16a6.7,6.7,0,0,1,6.7-6.7H38.47a6.7,6.7,0,0,1,6.7,6.7Z"/><path class="cls-1" d="M11.49,24.06h3.86V17.31a10.26,10.26,0,1,1,20.51,0v6.74h3.86a13.52,13.52,0,0,1,3.2.39V17.31a17.31,17.31,0,0,0-34.62,0v7.13A13.52,13.52,0,0,1,11.49,24.06Z"/><path class="cls-1" d="M36.75,33.58H14.45a5.81,5.81,0,0,0-5.81,5.81V55.3a5.81,5.81,0,0,0,5.81,5.81h22.3a5.81,5.81,0,0,0,5.81-5.81V39.39A5.81,5.81,0,0,0,36.75,33.58ZM31.46,54.11a4.83,4.83,0,0,1-1.62,1.73,7,7,0,0,1-2.38,1c-.28.06-.56.11-.84.15v1.4h-2V57.08a15.91,15.91,0,0,1-2.94-.26,10.19,10.19,0,0,1-1.47-.39,1.41,1.41,0,0,1-1-1.33V53.23a.72.72,0,0,1,1.09-.62,7.84,7.84,0,0,0,1.39.66,8,8,0,0,0,2.7.48h.18a5.72,5.72,0,0,0,1.22-.14,3.58,3.58,0,0,0,.81-.29l.19-.11a1.74,1.74,0,0,0,.6-.6,1.5,1.5,0,0,0,.2-.75,1.63,1.63,0,0,0-.32-1,3.19,3.19,0,0,0-.67-.66l-.19-.14a9,9,0,0,0-1.29-.71l-.54-.24-1.07-.45a8.24,8.24,0,0,1-3.29-2.24,4.9,4.9,0,0,1-1.08-3.2,5.12,5.12,0,0,1,.59-2.53,5,5,0,0,1,1.61-1.74,7.23,7.23,0,0,1,2.36-1q.44-.1.89-.17V36.35h2v1.26a17.1,17.1,0,0,1,2.52.18c.35.06.7.12,1,.21a1.41,1.41,0,0,1,1.07,1.37V41a.73.73,0,0,1-1,.67A8.11,8.11,0,0,0,29,41.27,8.89,8.89,0,0,0,27.87,41a8.42,8.42,0,0,0-1.11-.08h-.15a5.51,5.51,0,0,0-1.16.14,3.46,3.46,0,0,0-.87.32l-.13.07a1.92,1.92,0,0,0-.63.6,1.41,1.41,0,0,0-.22.78,1.49,1.49,0,0,0,.25.85,2.88,2.88,0,0,0,.71.71l0,0a7.62,7.62,0,0,0,1.09.64l.94.43.55.23a16.45,16.45,0,0,1,2,1,7.26,7.26,0,0,1,1.54,1.2,4.7,4.7,0,0,1,1,1.53,5.4,5.4,0,0,1,.34,2A5.32,5.32,0,0,1,31.46,54.11Z"/></g></g></svg>