<svg xmlns="http://www.w3.org/2000/svg" viewBox="0 0 68 68"><defs><style>.cls-1{fill:#e8b93f;}</style></defs><title>Ресурс 4</title><g id="Слой_2" data-name="Слой 2"><g id="Слой_1-2" data-name="Слой 1"><path class="cls-1" d="M65.16,30.6h-4V22.36a3.1,3.1,0,0,0-3.1-3.1H56.67V0H11.33V2.27H7.93V4.53H4.53v6.8H3.1A3.1,3.1,0,0,0,0,14.43V65.69H.07A2.91,2.91,0,0,0,.6,66.86,2.88,2.88,0,0,0,2.91,68H53.63a2.88,2.88,0,0,0,2.78-2.06L68,34.17V34C68,32,66.8,30.6,65.16,30.6ZM20.4,5.67H31.73a1.13,1.13,0,1,1,0,2.27H20.4a1.13,1.13,0,1,1,0-2.27Zm0,7.93H47.6a1.13,1.13,0,0,1,0,2.27H20.4a1.13,1.13,0,0,1,0-2.27Zm0,7.93H47.6a1.13,1.13,0,1,1,0,2.27H20.4a1.13,1.13,0,1,1,0-2.27ZM2.27,58.4v-44a.83.83,0,0,1,.83-.83H4.53V52.18ZM6.8,6.8H7.93V42.85L6.8,46ZM58.93,30.6H14.43a2.88,2.88,0,0,0-2.78,2.06l-1.45,4V4.53h1.13V29.47H56.67V21.53H58.1a.83.83,0,0,1,.83.83Z"/></g></g></svg>