<svg xmlns="http://www.w3.org/2000/svg" viewBox="0 0 77 54"><defs><style>.cls-1{fill:#e8b93f;}</style></defs><title>Ресурс 6</title><g id="Слой_2" data-name="Слой 2"><g id="Слой_1-2" data-name="Слой 1"><path class="cls-1" d="M1.58,37.07H41.45A1.09,1.09,0,0,0,42.53,36V3.29A3.27,3.27,0,0,0,39.28,0H3.75A3.27,3.27,0,0,0,.5,3.29V36A1.09,1.09,0,0,0,1.58,37.07Zm8-22A1.35,1.35,0,0,1,11,13.69H21.59V9.85a1.34,1.34,0,0,1,2.3-1l9.16,9.28a1.37,1.37,0,0,1,0,1.92l-9.16,9.28a1.34,1.34,0,0,1-2.3-1V24.57H11a1.35,1.35,0,0,1-1.34-1.36Zm4.66,30.83H1.08A1.09,1.09,0,0,1,0,44.78V41.45a1.09,1.09,0,0,1,1.08-1.1H17.27A9.08,9.08,0,0,0,14.28,45.88Zm61.64-5.53H73.28V25.45a8.85,8.85,0,0,0-1.48-4.9l-6.6-9.89A8.64,8.64,0,0,0,58,6.8H47.79A2.18,2.18,0,0,0,45.63,9V40.35H28.88a9,9,0,0,1,3,5.53H49.54a8.88,8.88,0,0,1,17.6,0h8.77A1.09,1.09,0,0,0,77,44.78V41.45A1.09,1.09,0,0,0,75.92,40.35ZM65.13,22.52H51.63a1.09,1.09,0,0,1-1.08-1.1V13.85a1.09,1.09,0,0,1,1.08-1.1h8.22a1.09,1.09,0,0,1,.89.46L66,20.8A1.1,1.1,0,0,1,65.13,22.52ZM23.07,40.35a6.83,6.83,0,1,0,6.74,6.83A6.79,6.79,0,0,0,23.07,40.35Zm0,10.24a3.41,3.41,0,1,1,3.37-3.41A3.39,3.39,0,0,1,23.07,50.59ZM58.35,40.35a6.83,6.83,0,1,0,6.74,6.83A6.78,6.78,0,0,0,58.35,40.35Zm0,10.24a3.41,3.41,0,1,1,3.37-3.41A3.39,3.39,0,0,1,58.35,50.59Z"/></g></g></svg>