<svg xmlns="http://www.w3.org/2000/svg" viewBox="0 0 463.02 471"><defs><style>.cls-1{fill:#e8b93f;}</style></defs><title>Ресурс 1</title><g id="Слой_2" data-name="Слой 2"><g id="Слой_1-2" data-name="Слой 1"><path class="cls-1" d="M87.82,239.5a16,16,0,0,0,16,16H359.24a16,16,0,1,0,0-31.93H103.78A16,16,0,0,0,87.82,239.5Z"/><path class="cls-1" d="M391.18,247.48h7.7A111.92,111.92,0,0,1,287.39,351.26H263.45v-8H199.58v8H175.63A111.92,111.92,0,0,1,64.15,247.48h7.7v-16H47.9v8A127.88,127.88,0,0,0,175.63,367.23h23.95v8h63.87v-8h23.95A127.88,127.88,0,0,0,415.13,239.5v-8H391.18Z"/><path class="cls-1" d="M327.31,23.95A23.95,23.95,0,1,1,303.36,0,24,24,0,0,1,327.31,23.95Z"/><path class="cls-1" d="M79.83,87.82A23.95,23.95,0,1,1,55.88,63.87,24,24,0,0,1,79.83,87.82Z"/><path class="cls-1" d="M463,183.61a23.95,23.95,0,1,1-23.95-23.95A24,24,0,0,1,463,183.61Z"/><path class="cls-1" d="M423.11,95.8a16,16,0,1,1-16-16A16,16,0,0,1,423.11,95.8Z"/><path class="cls-1" d="M31.93,191.6a16,16,0,1,1-16-16A16,16,0,0,1,31.93,191.6Z"/><path class="cls-1" d="M167.65,31.93a16,16,0,1,1-16-16A16,16,0,0,1,167.65,31.93Z"/><path class="cls-1" d="M327.31,71.85h16v16h-16Z"/><path class="cls-1" d="M79.83,16h16v16h-16Z"/><path class="cls-1" d="M63.87,143.7h16v16h-16Z"/><path class="cls-1" d="M375.21,175.63h16v16h-16Z"/><path class="cls-1" d="M287.39,335.29a95.15,95.15,0,0,0,51.08-14.91l3.63-49H120.93l3.63,49a95.15,95.15,0,0,0,51.08,14.91h8v-8h95.8v8Z"/><path class="cls-1" d="M279.41,383.19v8h-95.8v-8h-8a142.86,142.86,0,0,1-47-8.06l6,81.08A16,16,0,0,0,150.54,471H312.48a16,16,0,0,0,15.93-14.79l6-81.08a142.86,142.86,0,0,1-47,8.06Z"/><path class="cls-1" d="M337.44,188.15a39.69,39.69,0,0,0-42.77-59.41c-.07-.37-.22-.71-.3-1.08l.2.07A39.89,39.89,0,0,0,276,101.54c-.12-.08-.24-.19-.37-.27a39.54,39.54,0,0,0-5.16-2.48c-.37-.15-.7-.37-1.09-.5a40.28,40.28,0,0,0-5.19-1.44c-.53-.12-1-.33-1.56-.42a40.26,40.26,0,0,0-7.15-.65,39.71,39.71,0,0,0-23.95,8l.18.07-.18.11a39.64,39.64,0,0,0-63.16,24.78,39.7,39.7,0,0,0-42.77,59.4,40.32,40.32,0,0,0-18.41,19.42H355.85A40.29,40.29,0,0,0,337.44,188.15ZM167.65,167.65h-16v-16h16Zm63.87-16h-16v-16h16Zm39.92,47.9h-16v-16h16Zm39.92-23.95h-16v-16h16Z"/></g></g></svg>