<svg xmlns="http://www.w3.org/2000/svg" viewBox="0 0 358.98 299.8"><defs><style>.cls-1{fill:#e8b93f;}</style></defs><title>Ресурс 1</title><g id="Слой_2" data-name="Слой 2"><g id="Layer_1" data-name="Layer 1"><g id="_Группа_" data-name="&lt;Группа&gt;"><g id="_Группа_2" data-name="&lt;Группа&gt;"><path id="_Контур_" data-name="&lt;Контур&gt;" class="cls-1" d="M148.47,179.14c-.41-.33-.62-.64-1-1,3.09,2.45,5.66,5.21,10.12,8.3V158.62L149,178.31C148.92,178.6,148.61,178.88,148.47,179.14Z"/><path id="_Контур_2" data-name="&lt;Контур&gt;" class="cls-1" d="M210,178l-9.34-22.85v32.66l-.19-.36c3.6-3.16,6.83-5.9,9.95-8.87h0C210.3,178.54,210.15,178.31,210,178Z"/><ellipse id="_Контур_3" data-name="&lt;Контур&gt;" class="cls-1" cx="133.3" cy="26.98" rx="25.6" ry="26.98"/><ellipse id="_Контур_4" data-name="&lt;Контур&gt;" class="cls-1" cx="228.92" cy="26.98" rx="25.6" ry="26.98"/><g id="_Группа_3" data-name="&lt;Группа&gt;"><polygon id="_Контур_5" data-name="&lt;Контур&gt;" class="cls-1" points="225.97 168.61 225.97 168.61 225.97 168.61 225.97 168.61"/><path id="_Составной_контур_" data-name="&lt;Составной контур&gt;" class="cls-1" d="M273.42,65.44a11.7,11.7,0,0,0-3-4.4,8.18,8.18,0,0,0-6-2.89H193.47a8.18,8.18,0,0,0-6,2.89,11.45,11.45,0,0,0-3,4.34l-3.31,8.41-3.31-8.36a11.66,11.66,0,0,0-3-4.39,8.17,8.17,0,0,0-6-2.88H97.86a8.18,8.18,0,0,0-6,2.89,11.45,11.45,0,0,0-3,4.34L63.2,130.24q3.34,3.27,7.14,7.34c1.52,1.63,3.33,3.66,5.29,5.84s4.68,5.24,7.48,8.2c.06-.13.31-.25.36-.38l19.11-48.64v58.27s0,0,.17,0c4.68.44,9.88.94,15.09,1.84a47.19,47.19,0,0,1,15,5.5l19.6-47.05a10,10,0,0,1,5.41-5.61c.35-.36.81-.94,1.35-.94h39.17s.08.38.12.38a9.76,9.76,0,0,1,8.1,6.25L226,168.55a46.62,46.62,0,0,1,15.28-5.72c5.2-.9,10.5-1.44,15.18-1.88a96,96,0,0,0,11.08-1.43,19.3,19.3,0,0,0,2.35-1.88l-8.49-50.08,16.55,41.88c2.07-2.24,4-4.42,5.44-6,2-2.18,3.76-4.2,5.28-5.82,3.45-3.68,6.6-6.85,9.49-9.57Zm-94.84,46.77c-9.95,0-18-8.5-18-19s8.06-19,18-19,18,8.5,18,19S188.53,112.21,178.58,112.21Z"/></g></g><g id="_Группа_4" data-name="&lt;Группа&gt;"><g id="_Группа_5" data-name="&lt;Группа&gt;"><g id="_Группа_6" data-name="&lt;Группа&gt;"><g id="_Группа_7" data-name="&lt;Группа&gt;"><path id="_Контур_6" data-name="&lt;Контур&gt;" class="cls-1" d="M.17,118.45a34.91,34.91,0,0,0,3.2,18.43l27.52,57.94a34.91,34.91,0,0,0,13.2,14.73l48.56,30a34.78,34.78,0,0,1,15.86,22.74l65.65,3.64.73-7.84s6.28-33.95-16-54.18-32.53-27.59-43.15-29.43-22.3-1.9-28.24-3.74-18.87-17.58-25.8-25S39.49,123.09,32.1,123.09,21,125.4,21,129.55,44.57,166,44.57,166l11.55,10.62L40,168.34,16.86,135.55s-5.09-10.38,0-13.61,8-3,8-3l-2-19.88s.46-26.79-5.08-34.64S5.87,61.17,5.87,61.17Z"/><path id="_Составной_контур_2" data-name="&lt;Составной контур&gt;" class="cls-1" d="M101,284.09a12.19,12.19,0,0,0,11.5,12.85l51.2,2.84a12.19,12.19,0,0,0,12.85-11.5l.93-16.72-75.55-4.19Zm69.11-4.76a4.47,4.47,0,1,1-6.32,0A4.47,4.47,0,0,1,170.12,279.34Z"/></g></g></g><g id="_Группа_8" data-name="&lt;Группа&gt;"><g id="_Группа_9" data-name="&lt;Группа&gt;"><g id="_Группа_10" data-name="&lt;Группа&gt;"><path id="_Контур_7" data-name="&lt;Контур&gt;" class="cls-1" d="M358.81,118.45a34.91,34.91,0,0,1-3.2,18.43l-27.52,57.94a34.91,34.91,0,0,1-13.2,14.73l-48.56,30a34.78,34.78,0,0,0-15.86,22.74l-65.65,3.64-.73-7.84s-6.28-33.95,16-54.18,32.53-27.59,43.15-29.43,22.3-1.9,28.24-3.74,18.87-17.58,25.8-25,22.17-22.65,29.56-22.65S338,125.4,338,129.55,314.41,166,314.41,166l-11.55,10.62L319,168.34l23.09-32.79s5.09-10.38,0-13.61-8-3-8-3l2-19.88s-.46-26.79,5.08-34.64,11.91-3.25,11.91-3.25Z"/><path id="_Составной_контур_3" data-name="&lt;Составной контур&gt;" class="cls-1" d="M258,284.09a12.19,12.19,0,0,1-11.5,12.85l-51.2,2.84a12.19,12.19,0,0,1-12.85-11.5l-.93-16.72L257,267.37Zm-69.11-4.76a4.47,4.47,0,1,0,6.32,0A4.47,4.47,0,0,0,188.86,279.34Z"/></g></g></g></g></g></g></g></svg>