<svg xmlns="http://www.w3.org/2000/svg" viewBox="0 0 111 65"><defs><style>.cls-1{fill:#e8b93f;}</style></defs><title>Ресурс 3</title><g id="Слой_2" data-name="Слой 2"><g id="Слой_1-2" data-name="Слой 1"><path class="cls-1" d="M88.61,33.41,55.5,43.7,22.39,33.41V50.6c0,8,14.83,14.4,33.12,14.4s33.12-6.45,33.12-14.4c0-.06,0-.12,0-.19Zm0-3.75L111,21.57,55.5,0,0,21.57l11.83,4.27,1-2.18,4.35-.37.62.65-3.73.89-.54,1.63S5.11,44.25,6.34,53c0,0,5.26,3.17,10.51,0l1.4-23.79v-2l7.82-1.78-.55,1.37-5.83,1.92,2.7,1L55.5,40Z"/></g></g></svg>