<svg xmlns="http://www.w3.org/2000/svg" viewBox="0 0 75 64.01"><defs><style>.cls-1{fill:#e8b93f;}</style></defs><title>Ресурс 7</title><g id="Слой_2" data-name="Слой 2"><g id="Слой_3" data-name="Слой 3"><path class="cls-1" d="M2.76,13.42A9,9,0,0,0,0,20V54.67a9,9,0,0,0,2.76,6.58A9,9,0,0,0,9.38,64h1.34V10.67H9.38A9,9,0,0,0,2.76,13.42ZM53.57,4A3.85,3.85,0,0,0,52.4,1.17,3.88,3.88,0,0,0,49.55,0H25.45A3.88,3.88,0,0,0,22.6,1.17,3.85,3.85,0,0,0,21.43,4v6.67h-6.7V64H60.27V10.67h-6.7ZM26.79,5.33H48.21v5.33H26.79Zm26.41,37a1.31,1.31,0,0,1-1,.37H42.86V52a1.29,1.29,0,0,1-1.34,1.33h-8A1.28,1.28,0,0,1,32.14,52V42.67H22.77a1.31,1.31,0,0,1-1-.37,1.3,1.3,0,0,1-.38-1v-8A1.29,1.29,0,0,1,22.77,32h9.38V22.67a1.29,1.29,0,0,1,1.34-1.33h8a1.29,1.29,0,0,1,1.34,1.33V32h9.38a1.29,1.29,0,0,1,1.34,1.33v8h0A1.3,1.3,0,0,1,53.19,42.3Zm19-28.88a9,9,0,0,0-6.61-2.75H64.29V64h1.34A9.41,9.41,0,0,0,75,54.67V20A9,9,0,0,0,72.24,13.42Z"/></g></g></svg>