<?xml version="1.0" encoding="utf-8"?><svg xmlns="http://www.w3.org/2000/svg" xmlns:xlink="http://www.w3.org/1999/xlink"><symbol viewBox="0 0 52 58" id="advantages_(1)" xmlns="http://www.w3.org/2000/svg"><defs><style>.aacls-1{fill:#e8b93f}</style></defs><g id="aaСлой_2" data-name="Слой 2"><path class="aacls-1" d="M1.3 48.77h9.1v7.91a1.29 1.29 0 0 0 .37.95 1.25 1.25 0 0 0 .93.37h6.78a1.27 1.27 0 0 0 .91-.37 1.25 1.25 0 0 0 .39-.95v-7.91H40.3a1.26 1.26 0 0 0 .93-.37 1.29 1.29 0 0 0 .37-.95v-5.27a1.29 1.29 0 0 0-.37-.95 1.25 1.25 0 0 0-.93-.37H19.78V36h13.81q8.12 0 13.26-5A17.35 17.35 0 0 0 52 18a17.36 17.36 0 0 0-5.14-13q-5.14-5-13.27-5H11.7a1.26 1.26 0 0 0-.93.37 1.3 1.3 0 0 0-.37.95v25.91H1.3a1.22 1.22 0 0 0-.93.39 1.31 1.31 0 0 0-.37.93v6.14a1.29 1.29 0 0 0 .37.95 1.26 1.26 0 0 0 .93.36h9.1v4.86H1.3a1.25 1.25 0 0 0-.93.37 1.29 1.29 0 0 0-.37.95v5.27a1.29 1.29 0 0 0 .37.95 1.26 1.26 0 0 0 .93.37zm18.48-40h13a9.57 9.57 0 0 1 6.95 2.55A8.87 8.87 0 0 1 42.37 18a8.86 8.86 0 0 1-2.64 6.67 9.56 9.56 0 0 1-6.95 2.55h-13z" id="aaСлой_3" data-name="Слой 3"/></g></symbol><symbol viewBox="0 0 87 48" id="advantages_(2)" xmlns="http://www.w3.org/2000/svg"><defs><style>.abcls-1{fill:#e8b93f}</style></defs><g id="abСлой_2" data-name="Слой 2"><path class="abcls-1" d="M32.24 33.7a7.15 7.15 0 1 0 7.26 7.16 7.21 7.21 0 0 0-7.26-7.16zm0 10.73a3.57 3.57 0 1 1 3.63-3.57 3.61 3.61 0 0 1-3.63 3.57zM87 28.41V36a3.47 3.47 0 0 1-3.5 3.45h-3.75a9.63 9.63 0 0 0-19 0h-19a9.63 9.63 0 0 0-19 0H18A3.47 3.47 0 0 1 14.54 36v-7.59zM70.25 33.7a7.15 7.15 0 1 0 7.26 7.16 7.22 7.22 0 0 0-7.26-7.16zm0 10.73a3.57 3.57 0 1 1 3.63-3.57 3.61 3.61 0 0 1-3.63 3.57zm15.37-23.7L71.86 7.34A4.72 4.72 0 0 0 68.58 6h-6.95V3.45A3.47 3.47 0 0 0 58.13 0H18a3.48 3.48 0 0 0-3.5 3.45V4L.33 5.6l25.18 3.22L0 11.32l25.42 3.56L0 17l14.54 2.7v6.77H87V24a4.58 4.58 0 0 0-1.38-3.27zm-6 .45H66.3a.54.54 0 0 1-.55-.54V10.52a.54.54 0 0 1 .55-.52h2.53a.6.6 0 0 1 .39.15L80 20.25a.54.54 0 0 1-.38.93z" id="abСлой_3" data-name="Слой 3"/></g></symbol><symbol viewBox="0 0 71 49" id="advantages_(3)" xmlns="http://www.w3.org/2000/svg"><defs><style>.accls-1{fill:#e8b93f}</style></defs><g id="acСлой_2" data-name="Слой 2"><path class="accls-1" d="M0 44.55A4.45 4.45 0 0 0 4.44 49h62.12A4.45 4.45 0 0 0 71 44.55V17.82H0zm46.59-17.82A6.6 6.6 0 0 1 51 28.46a6.6 6.6 0 0 1 4.44-1.73 6.68 6.68 0 0 1 0 13.36A6.6 6.6 0 0 1 51 38.36a6.6 6.6 0 0 1-4.44 1.73 6.68 6.68 0 0 1 0-13.36zm-35.5 4.45h13.32a2.23 2.23 0 0 1 0 4.45H11.09a2.23 2.23 0 0 1 0-4.45zM66.56 0H4.44A4.45 4.45 0 0 0 0 4.45v4.46h71V4.45A4.45 4.45 0 0 0 66.56 0z" id="acСлой_3" data-name="Слой 3"/></g></symbol><symbol viewBox="0 0 55 58" id="advantages_(4)" xmlns="http://www.w3.org/2000/svg"><defs><style>.adcls-1{fill:#e8b93f}</style></defs><g id="adСлой_2" data-name="Слой 2"><path class="adcls-1" d="M13.55 26.7a13.32 13.32 0 0 0 10.19-4.19 13.55 13.55 0 0 0 3.42-9.17C27.16 6.72 22.48 0 13.55 0A13.24 13.24 0 0 0 3.4 4.19 13.58 13.58 0 0 0 0 13.35C0 20 4.65 26.7 13.55 26.7zm0-20.5a6.84 6.84 0 0 1 7.12 7.15 7.32 7.32 0 0 1-1.75 4.88 6.82 6.82 0 0 1-5.29 2.18 6.92 6.92 0 0 1-7.31-7.15c0-3.51 2.24-7.05 7.23-7.05zM50.87 5L46 5.15a3.86 3.86 0 0 0-2.46 1.14L3.39 51.6A.86.86 0 0 0 4 53.07h5.31A3.75 3.75 0 0 0 11.76 52L51.7 6.65C52.25 6 52.21 5 50.87 5zm-9.22 26.8a13 13 0 0 0-10 4.11 13.32 13.32 0 0 0-3.34 9c0 6.51 4.57 13.1 13.29 13.1a13.07 13.07 0 0 0 10-4.11 13.29 13.29 0 0 0 3.36-9c.04-6.51-4.55-13.1-13.31-13.1zm5.36 18a6.79 6.79 0 0 1-5.28 2.2c-4.88 0-7.11-3.72-7.11-7.17a7.37 7.37 0 0 1 1.75-4.9 6.79 6.79 0 0 1 5.28-2.18c4.88 0 7.11 3.72 7.11 7.17A7.37 7.37 0 0 1 47 49.81z" id="adСлой_3" data-name="Слой 3"/></g></symbol><symbol viewBox="0 0 61 72" id="advantages_(5)" xmlns="http://www.w3.org/2000/svg"><defs><style>.aecls-1{fill:#e8b93f}</style></defs><g id="aeСлой_2" data-name="Слой 2"><path class="aecls-1" d="M30.5 40.61c4.9 0 16.42-6 16.42-20.3C46.92 9.09 45.43 0 30.5 0S14.08 9.09 14.08 20.3c0 14.33 11.52 20.31 16.42 20.31zm-14-23.69c1.15-2.26 3.65-4.87 9-4.76 0 0 3.2 7.86 18.9 4.33.06 1.26.08 2.54.08 3.81a18.22 18.22 0 0 1-5.61 13.75c-3.22 3-6.8 4.13-8.42 4.13s-5.2-1.1-8.42-4.13a18.22 18.22 0 0 1-5.56-13.75c0-1.13.02-2.3.06-3.38zM61 61.43c-.84-5.28-2.56-12.09-6-14.51-2.36-1.65-10.61-6.12-14.13-8h-.06a1.14 1.14 0 0 0-1.25.11 14.88 14.88 0 0 1-6 2.94 1.16 1.16 0 0 0-.83.73l-2.23 5.76-2.18-5.83a1.16 1.16 0 0 0-.83-.73 14.88 14.88 0 0 1-6-2.94 1.14 1.14 0 0 0-1.25-.11c-3.48 1.89-11.83 6.45-14.19 8.06-4 2.72-5.73 12.57-6 14.52a1.18 1.18 0 0 0 .02.57c.14.41 3.8 10 30.44 10s30.29-9.59 30.43-10a1.18 1.18 0 0 0 .06-.57zM48.72 58.2l-5.22 1.65-5.21-1.65v-2.84h10.43z" id="aeСлой_3" data-name="Слой 3"/></g></symbol><symbol viewBox="0 0 115.46 103.83" id="advantages_(6)" xmlns="http://www.w3.org/2000/svg"><defs><style>.afcls-1{fill:#e8b93f}</style></defs><g id="afСлой_2" data-name="Слой 2"><g id="afСлой_3" data-name="Слой 3"><path class="afcls-1" d="M51 94.68l32.73-7.39v3.17l-29.87 6.68a4.86 4.86 0 0 1-1.41-1.06c-.35-.34-.7-1.08-1.45-1.4z"/><path class="afcls-1" d="M7.75 42.59L38 34.85c12 2.11 23.58 4.58 35.55 7 1.41.35 1.76 6.69-.35 9.5l-3.15 2.15c1.76 0 3.87.35 5.63.35a12.86 12.86 0 0 1 0 10.21l-7.74 5.28 16.19 4.22v3.17l-48.57 9.5c-2.46 2.82-2.11 8.45.7 11.62l7.39-1.41a10.7 10.7 0 0 0 1.76 2.46l-8.79 2.1c-1.41.35-1.76.35-3.52-.7C22.54 94 12.33 87.29 1.42 81 0 77.79-1 72.51 1.77 69l2.82-1.06-.35 1.76 41.53 8.8c2.46-1.76 2.11-9.5.7-9.86L4.59 60.89V57l3.17.35-.36-3.5c12.67 3.15 25.7 6.69 38.37 9.86 1.76-1.06 2.11-6 .35-8.8L7.4 46.46zm29.57 45.4l44.7-8.8"/><path class="afcls-1" d="M38.02 87.29l44-8.8v1.06l-44 8.79v-1.05zm-.35 2.81l44.35-8.79m-44 8.09l44-8.45v1.06l-44 8.45V89.4zm-.35 3.17l44.7-8.8M38 91.86l44-8.8v1.41l-33.42 6.34a11.37 11.37 0 0 0 3.52 6 15.16 15.16 0 0 0 3.52 2.46 20.07 20.07 0 0 1-4.58.35c-.7 1.76-1.76 2.82-2.46 4.22 0 0-.35-1.41-.7-3.17-1.06-1.41-3.17-3.52-3.87-5.28A21.87 21.87 0 0 1 43 91.86l-5 1.06zm.02 2.82l44.35-8.8"/><path class="afcls-1" d="M49.64 91.86l32.38-6.33v1.05l-32.03 6.34v-1.06h-.35zm-11.62 2.12l4.58-.71v1.06l-4.58 1.05v-1.4zm75.68-57.73l-.35 1.06 1.06.35v-.35c0-.35.35-.35.7-.35l.35.35-1.76 15.49a.34.34 0 0 1-.35.35c-.35 0-.35 0-.35-.35l1.41-13.37h-1.06l-1.41 13.37-4.22-.35 1.76-16.89a1.61 1.61 0 0 1 1.76-1.41v-1.06a.76.76 0 0 1 .7-.7c.35.35.7.35.35.7v1.06a2.38 2.38 0 0 1 1.41 2.1z"/><path class="afcls-1" d="M89.06 39.77l1.41 15.49c-.35 0-.7-.35-1.06-.35.7 12 1.41 23.93 1.76 35.55a49.85 49.85 0 0 0 20.41 0c.7-11.62 1.06-23.58 1.76-35.55-.7 0-1.06.35-1.76.35l.35-1.76-4.22-.35-.35 3.17H106V0h-9.2v56.67c-.7 0-1.06-.35-1.76-.35l-1.76-16.9zm12-38h3.87v.7H101zm1.76 2.82h2.11v1.04h-2.11zm0 3.52h2.11v.7h-2.11zm0 3.17h2.11V12h-2.11zm0 3.17h2.11v.7h-2.11zM101 17.6h3.87v.7H101zm1.76 3.17h2.11v1.06h-2.11zm0 3.17h2.11V25h-2.11zm0 3.52h2.11v.7h-2.11zm0 3.17h2.11v.7h-2.11zM101 33.79h3.87v.7H101zm1.79 3.21h2.11v.7h-2.11zm0 3.17h2.11v1.06h-2.11zm0 3.52h2.11v.7h-2.11zm0 3.17h2.11v.7h-2.11zM101 50h3.87v.7H101zm1.76 3.17h2.11v.7h-2.11z"/><path class="afcls-1" d="M88.71 36.61l.35 2.46 4.22-.7-.35-2.11c-.35-1.77-4.22-1.41-4.22.35z"/></g></g></symbol><symbol viewBox="0 0 45 45" id="icon1" xmlns="http://www.w3.org/2000/svg"><defs><style>.agcls-1{fill:#e8b93f;fill-rule:evenodd}.agcls-2{fill:#fff}</style></defs><g id="agСлой_2" data-name="Слой 2"><g id="agСлой_3" data-name="Слой 3"><path class="agcls-1" d="M0 0h45v45H0z"/><path class="agcls-2" d="M30.69 24.8a2.52 2.52 0 0 0-1.82-.8 2.6 2.6 0 0 0-1.87.8l-1.7 1.69-.42-.21c-.19-.1-.38-.19-.53-.28a18.48 18.48 0 0 1-4.44-4 10.88 10.88 0 0 1-1.46-2.29c.44-.4.85-.82 1.25-1.22l.45-.46a2.45 2.45 0 0 0 0-3.71l-1.47-1.47-.5-.51c-.32-.33-.66-.68-1-1a2.56 2.56 0 0 0-1.81-.79 2.65 2.65 0 0 0-1.83.79l-1.83 1.84a3.92 3.92 0 0 0-1.17 2.49 9.37 9.37 0 0 0 .69 4 23.07 23.07 0 0 0 4.12 6.85 25.35 25.35 0 0 0 8.45 6.58 13.19 13.19 0 0 0 4.74 1.39h.34A4.07 4.07 0 0 0 32 33.15a12.14 12.14 0 0 1 .94-1c.23-.22.47-.45.7-.69a2.67 2.67 0 0 0 .81-1.86 2.57 2.57 0 0 0-.83-1.84zm1.93 5.65c-.21.23-.43.43-.66.65a14.12 14.12 0 0 0-1 1.07 2.6 2.6 0 0 1-2 .85h-.25a11.72 11.72 0 0 1-4.2-1.26 23.93 23.93 0 0 1-8-6.2 21.76 21.76 0 0 1-3.88-6.43 7.63 7.63 0 0 1-.6-3.36 2.46 2.46 0 0 1 .74-1.59l1.84-1.83a1.23 1.23 0 0 1 .79-.35 1.16 1.16 0 0 1 .79.38c.33.31.64.62 1 1l.51.52 1.47 1.46a1 1 0 0 1 0 1.66l-.46.46c-.45.46-.88.89-1.35 1.31A1.09 1.09 0 0 0 17 20a11.75 11.75 0 0 0 1.74 2.83 19.76 19.76 0 0 0 4.79 4.34 7.34 7.34 0 0 0 .66.36c.19.1.38.19.53.28h.06a1.18 1.18 0 0 0 .53.13 1.16 1.16 0 0 0 .82-.37L28 25.82a1.22 1.22 0 0 1 .81-.4 1.1 1.1 0 0 1 .78.39l3 3a1.06 1.06 0 0 1 .03 1.64z"/></g></g></symbol><symbol viewBox="0 0 45 45" id="icon2" xmlns="http://www.w3.org/2000/svg"><defs><style>.ahcls-1{fill:#e8b93f;fill-rule:evenodd}.ahcls-2{fill:#fff}</style></defs><g id="ahСлой_2" data-name="Слой 2"><g id="ahСлой_3" data-name="Слой 3"><path class="ahcls-1" d="M0 0h45v45H0z"/><path class="ahcls-2" d="M10 14v17h25V14zm12.5 10.5l-10.25-9.24h20.5zm-4.08-2L11.23 29V16zm.93.84l3.15 2.84 3.15-2.84 7.11 6.4H12.24zm7.24-.84l7.18-6.5v13z"/></g></g></symbol><symbol viewBox="0 0 45 45" id="icon3" xmlns="http://www.w3.org/2000/svg"><defs><style>.aicls-1{fill:#e8b93f;fill-rule:evenodd}.aicls-2{fill:#fff}</style></defs><g id="aiСлой_2" data-name="Слой 2"><g id="aiСлой_3" data-name="Слой 3"><path class="aicls-1" d="M0 0h45v45H0z"/><path class="aicls-2" d="M23.4 9h-1.8A13.5 13.5 0 0 0 9 21.6v1.8A13.5 13.5 0 0 0 21.6 36h1.8A13.5 13.5 0 0 0 36 23.4v-1.8A13.5 13.5 0 0 0 23.4 9zm-5.95 2.91a14.32 14.32 0 0 0-2.12 4.26h-2.7a11.77 11.77 0 0 1 4.82-4.23zM11.7 18h3.16a21.46 21.46 0 0 0-.44 3.6h-3.59a11.58 11.58 0 0 1 .87-3.6zm-.86 5.4h3.58a21.45 21.45 0 0 0 .44 3.6H11.7a11.58 11.58 0 0 1-.87-3.6zm1.8 5.4h2.69a14.29 14.29 0 0 0 2.12 4.26 11.76 11.76 0 0 1-4.81-4.26zm9 5.28c-1.85-.49-3.44-2.48-4.41-5.28h4.37zm0-7.08h-4.96a20.16 20.16 0 0 1-.47-3.6h5.39zm0-5.4h-5.42a20.16 20.16 0 0 1 .47-3.6h4.91zm0-5.4h-4.45c1-2.8 2.56-4.79 4.41-5.28zm10.76 0h-2.73a14.3 14.3 0 0 0-2.12-4.26 11.76 11.76 0 0 1 4.81 4.26zm-9-5.28c1.85.49 3.44 2.48 4.41 5.28H23.4zm0 7.08h4.91a20.21 20.21 0 0 1 .47 3.6H23.4zm0 5.4h5.38a20.06 20.06 0 0 1-.47 3.6H23.4zm0 10.68V28.8h4.41c-.97 2.8-2.56 4.79-4.41 5.28zm4.15-1a14.35 14.35 0 0 0 2.12-4.26h2.69a11.75 11.75 0 0 1-4.81 4.24zM33.3 27h-3.16a21.46 21.46 0 0 0 .44-3.6h3.58a11.6 11.6 0 0 1-.86 3.6zm-2.72-5.4a21.47 21.47 0 0 0-.44-3.6h3.16a11.61 11.61 0 0 1 .86 3.6z"/></g></g></symbol><symbol viewBox="0 0 51.2 68.59" id="outlooks_(1)" xmlns="http://www.w3.org/2000/svg"><defs><style>.ajcls-1{fill:#e8b93f}</style></defs><g id="ajСлой_2" data-name="Слой 2"><g id="ajСлой_3" data-name="Слой 3"><path class="ajcls-1" d="M39.71 26.11H11.49A11.49 11.49 0 0 0 0 37.59V56a12.63 12.63 0 0 0 12.63 12.59h25.93A12.63 12.63 0 0 0 51.2 56V37.59a11.49 11.49 0 0 0-11.49-11.48zm5.47 30.43a6.7 6.7 0 0 1-6.7 6.7H12.72A6.7 6.7 0 0 1 6 56.53V38.16a6.7 6.7 0 0 1 6.7-6.7h25.77a6.7 6.7 0 0 1 6.7 6.7zM11.49 24.06h3.86v-6.75a10.26 10.26 0 1 1 20.51 0v6.74h3.86a13.52 13.52 0 0 1 3.2.39v-7.13a17.31 17.31 0 0 0-34.62 0v7.13a13.52 13.52 0 0 1 3.19-.38z"/><path class="ajcls-1" d="M36.75 33.58h-22.3a5.81 5.81 0 0 0-5.81 5.81V55.3a5.81 5.81 0 0 0 5.81 5.81h22.3a5.81 5.81 0 0 0 5.81-5.81V39.39a5.81 5.81 0 0 0-5.81-5.81zm-5.29 20.53a4.83 4.83 0 0 1-1.62 1.73 7 7 0 0 1-2.38 1c-.28.06-.56.11-.84.15v1.4h-2v-1.31a15.91 15.91 0 0 1-2.94-.26 10.19 10.19 0 0 1-1.47-.39 1.41 1.41 0 0 1-1-1.33v-1.87a.72.72 0 0 1 1.09-.62 7.84 7.84 0 0 0 1.39.66 8 8 0 0 0 2.7.48h.18a5.72 5.72 0 0 0 1.22-.14 3.58 3.58 0 0 0 .81-.29l.19-.11a1.74 1.74 0 0 0 .6-.6 1.5 1.5 0 0 0 .2-.75 1.63 1.63 0 0 0-.32-1 3.19 3.19 0 0 0-.67-.66l-.19-.14a9 9 0 0 0-1.29-.71l-.54-.24-1.07-.45a8.24 8.24 0 0 1-3.29-2.24 4.9 4.9 0 0 1-1.08-3.2 5.12 5.12 0 0 1 .59-2.53 5 5 0 0 1 1.61-1.74 7.23 7.23 0 0 1 2.36-1q.44-.1.89-.17v-1.43h2v1.26a17.1 17.1 0 0 1 2.52.18c.35.06.7.12 1 .21a1.41 1.41 0 0 1 1.07 1.37V41a.73.73 0 0 1-1 .67 8.11 8.11 0 0 0-1.18-.4 8.89 8.89 0 0 0-1.13-.27 8.42 8.42 0 0 0-1.11-.08h-.15a5.51 5.51 0 0 0-1.16.14 3.46 3.46 0 0 0-.87.32l-.13.07a1.92 1.92 0 0 0-.63.6 1.41 1.41 0 0 0-.22.78 1.49 1.49 0 0 0 .25.85 2.88 2.88 0 0 0 .71.71 7.62 7.62 0 0 0 1.09.64l.94.43.55.23a16.45 16.45 0 0 1 2 1 7.26 7.26 0 0 1 1.54 1.2 4.7 4.7 0 0 1 1 1.53 5.4 5.4 0 0 1 .34 2 5.32 5.32 0 0 1-.56 2.69z"/></g></g></symbol><symbol viewBox="0 0 117.87 59.1" id="outlooks_(2)" xmlns="http://www.w3.org/2000/svg"><defs><style>.akcls-1{fill:none}.akcls-2{fill:#e8b93f}</style></defs><g id="akСлой_2" data-name="Слой 2"><g id="akСлой_3" data-name="Слой 3"><path class="akcls-1" d="M66.76 34.79c-1.27.11-2.25.39-2.59 1l1.51-3.15a9.73 9.73 0 0 1-14.46-.14l2 4.57.12.27a1.43 1.43 0 0 0-.4-.39 3.52 3.52 0 0 0-.89-.43 15.17 15.17 0 0 0-3.48-.63c.89 1.65 3.1 3 6 3.63l3.94 6.4 3.94-6.4c.32-.07.64-.16.95-.25h.16c.3-.09.59-.19.86-.3h.12a11 11 0 0 0 1.59-.78h.08c.24-.15.46-.3.68-.46A6.1 6.1 0 0 0 68 36.46a4.56 4.56 0 0 0 .38-.58 3.5 3.5 0 0 0 .39-1.09 18.32 18.32 0 0 0-2.01 0zM97 31.06c4.61 0 8.41-5 9-11.49a4.39 4.39 0 0 0-1.44.68s1-6.11-1.14-7A17.63 17.63 0 0 1 97 14.83a17.64 17.64 0 0 1-6.42-1.55c-2.17.86-1.14 7-1.14 7a4.4 4.4 0 0 0-1.44-.71c.58 6.49 4.39 11.49 9 11.49zm-72.54 3.31l1.18-2.45a8 8 0 0 1-5.57 2.45 8 8 0 0 1-5.68-2.56l1.69 3.77c-.39-.65-1.92-1-3.71-1.13.69 1.28 2.41 2.32 4.64 2.82l3.06 5 3.06-5c2.7-.61 4.67-2 4.94-3.68-1.74-.04-3.22.13-3.61.78z"/><path class="akcls-1" d="M28.36 19.94l-3-.38c1.64-.95.77-3 .37-3.72-.12-.21-.2-.33-.2-.33l-.07.05a35.51 35.51 0 0 1-8.51 4.65 35.38 35.38 0 0 1-5.65 1.42c.58 6.32 4.29 11.19 8.77 11.19 2.94 0 5.55-2.1 7.16-5.32a16.7 16.7 0 0 0 1.64-6.18A9.58 9.58 0 0 0 29 20l-.55-.1zm40.83-2.75l-3.85-.49c2.11-1.22 1-3.89.47-4.78-.15-.26-.26-.42-.26-.42l-.09.06a45.66 45.66 0 0 1-10.94 6 45.48 45.48 0 0 1-7.27 1.83c.75 8.12 5.51 14.39 11.28 14.39 3.78 0 7.13-2.7 9.2-6.84A21.48 21.48 0 0 0 69.84 19a12.59 12.59 0 0 0 .16-1.68l-.7-.13z"/><path class="akcls-2" d="M86.7 19.19v.29c.66 7.43 5 13.17 10.27 13.17s9.61-5.74 10.27-13.17v-.29c0-.32.08-.65.1-1s0-.45 0-.68a11.59 11.59 0 0 0-.12-1.66 10.35 10.35 0 0 0-20.59 0 11.59 11.59 0 0 0-.12 1.66v.68c0 .22.15.68.19 1zm3.87-5.91A17.64 17.64 0 0 0 97 14.83a17.63 17.63 0 0 0 6.42-1.55c2.17.86 1.14 7 1.14 7a4.36 4.36 0 0 1 1.44-.68c-.6 6.49-4.4 11.49-9 11.49s-8.41-5-9-11.49a4.39 4.39 0 0 1 1.44.68s-1.04-6.15 1.13-7z"/><path class="akcls-2" d="M106 31.3h-.07l-.58-.07v.23a2.76 2.76 0 0 1-.28.94c-1 2.55-4.29 7.38-6.22 10.12l-.4-5.7a3.33 3.33 0 0 0 1.36-1.32 2.63 2.63 0 0 0 .36-1.28 8.25 8.25 0 0 1-2.91.64h-.5a8.26 8.26 0 0 1-2.91-.64 2.65 2.65 0 0 0 .36 1.28 3.33 3.33 0 0 0 1.36 1.32l-.4 5.7c-1.93-2.74-5.2-7.57-6.22-10.12a2.78 2.78 0 0 1-.28-.94v-.23l-.58.07H88a13.75 13.75 0 0 0-8.87 5.1 19.07 19.07 0 0 1 7.17 14.85c0 .44 0 .85-.05 1.26h17.84c7.61 0 13.78 0 13.78-7.59A13.78 13.78 0 0 0 106 31.3zm-69.33 6.21a13.25 13.25 0 0 0-5.8-3.72c2.27.25 4.27.65 4.27.65C30.6 31.95 30.72 23 30.72 23 31.51 5.67 20.07 6.57 20.07 6.57S8.62 5.67 9.41 23c0 0 .12 8.95-4.42 11.44 0 0 1.22-.08 2.85-.11A13.25 13.25 0 0 0 0 46.43c0 7.32 5.93 6 13.25 6h13.64c1.37 0 2.69 0 3.93.07 0-.41-.05-.83-.05-1.27a19.06 19.06 0 0 1 5.9-13.72zm-13.54-.24l-3.06 5-3.06-5c-2.23-.51-3.95-1.54-4.64-2.82 1.8.16 3.32.48 3.71 1.13l-1.69-3.77a8 8 0 0 0 5.68 2.56 8 8 0 0 0 5.57-2.45l-1.18 2.45c.39-.65 1.88-.83 3.62-.78-.28 1.66-2.24 3.06-4.95 3.68zm5.73-16a16.7 16.7 0 0 1-1.64 6.18c-1.61 3.23-4.21 5.32-7.16 5.32-4.48 0-8.19-4.87-8.77-11.19a35.34 35.34 0 0 0 5.65-1.42 35.54 35.54 0 0 0 8.51-4.65l.07-.05s.08.12.2.33c.41.7 1.28 2.77-.37 3.72l3 .38h.06L29 20a9.56 9.56 0 0 1-.14 1.32z"/><path d="M74.52 35.84h.01-.01zm-25.89 0c.89 1.65 3.1 3 6 3.63-2.9-.65-5.11-1.98-6-3.63zm18.3 1.69A6.1 6.1 0 0 0 68 36.46a6.06 6.06 0 0 1-1.07 1.07z"/><path class="akcls-2" d="M84.23 49.45c0-.29-.06-.58-.11-.86s-.07-.35-.1-.53-.1-.5-.15-.75-.1-.38-.15-.57-.13-.45-.2-.67-.13-.39-.2-.59-.15-.4-.23-.6-.17-.4-.26-.6l-.25-.53c-.1-.21-.21-.42-.32-.63l-.26-.41c-.13-.23-.26-.46-.41-.68l-.14-.21a17.13 17.13 0 0 0-2.95-3.37c-.28-.24-.56-.47-.86-.7l-.09-.07q-.43-.33-.89-.63l-.1-.07c-.31-.2-.62-.39-.94-.57h-.08c-.33-.18-.67-.36-1-.52a17.05 17.05 0 0 0-2.1-.83c2.92.33 5.48.83 5.48.83a7.08 7.08 0 0 1-1.74-1.37c-4.06-4.28-3.94-13.34-3.94-13.34C73.25-1.16 58.54 0 58.54 0s-14.72-1.15-13.7 21.13c0 0 .12 9-3.93 13.33a7.17 7.17 0 0 1-1.75 1.38s1.57-.11 3.67-.15l-.3.15a17 17 0 0 0-4.83 3.41q-.41.41-.79.85-.37.43-.7.87l-.06.09c-.21.29-.42.58-.61.88l-.09.15c-.18.28-.35.57-.52.86l-.12.23c-.15.28-.29.55-.43.84l-.13.31c-.12.26-.23.53-.34.8s-.09.27-.14.4-.18.49-.25.74-.09.34-.13.51-.13.45-.18.68-.08.42-.12.63-.08.39-.11.59-.06.53-.09.79 0 .3-.05.46v2.64c0 .32.07.63.12.92v.06a8.24 8.24 0 0 0 .21.87l.06.2a7.08 7.08 0 0 0 .26.69v.08a5.59 5.59 0 0 0 .36.66l.09.14a5.12 5.12 0 0 0 .38.5l.06.07a5.1 5.1 0 0 0 .5.48l.12.1a5.66 5.66 0 0 0 .49.35l.1.06a6.17 6.17 0 0 0 .63.33l.15.06.59.23h.13c.24.08.49.14.74.2h.16l.67.13h.17l.83.11h.18l.74.06h35.9l.73-.06h.19l.83-.1h.19l.66-.13h.18c.25-.06.5-.13.73-.2l.15-.05.57-.22.16-.07a5.9 5.9 0 0 0 .62-.33l.11-.07a5.42 5.42 0 0 0 .48-.34l.13-.1a5 5 0 0 0 .5-.48l.07-.08a4.89 4.89 0 0 0 .37-.49l.1-.15a5.4 5.4 0 0 0 .36-.66v-.08a6.72 6.72 0 0 0 .26-.68l.06-.2a8.62 8.62 0 0 0 .21-.86v-.06c.05-.29.09-.6.12-.92v-1.36c0-.45 0-.9-.06-1.34.07-.09.04-.24.03-.39zM68.44 35.84a4.47 4.47 0 0 1-.38.58 6.05 6.05 0 0 1-1.09 1.06c-.21.16-.44.31-.68.46h-.08a10.91 10.91 0 0 1-1.59.78h-.12l-.86.3h-.16c-.31.09-.62.18-.95.25l-3.94 6.4-3.94-6.4c-2.86-.65-5.07-2-6-3.63a15.23 15.23 0 0 1 3.48.63 3.52 3.52 0 0 1 .89.43 1.41 1.41 0 0 1 .4.39l-.15-.09-2-4.57a9.73 9.73 0 0 0 14.46.14l-1.51 3.15c.34-.56 1.31-.84 2.59-1a18.32 18.32 0 0 1 2.06-.05 3.5 3.5 0 0 1-.43 1.17zM69.84 19a21.48 21.48 0 0 1-2.11 7.95c-2.07 4.15-5.42 6.84-9.2 6.84-5.76 0-10.53-6.26-11.28-14.39a45.48 45.48 0 0 0 7.27-1.83 45.72 45.72 0 0 0 10.94-6l.09-.06s.11.15.26.42c.52.89 1.64 3.56-.47 4.78l3.85.49h.07l.7.13a12.59 12.59 0 0 1-.12 1.67z"/></g></g></symbol><symbol viewBox="0 0 58.2 54.1" id="outlooks_(3)" xmlns="http://www.w3.org/2000/svg"><defs><style>.alcls-1{fill:#e8b93f}</style></defs><g id="alСлой_2" data-name="Слой 2"><g id="alСлой_3" data-name="Слой 3"><path class="alcls-1" d="M51.3 0H6.7A6.51 6.51 0 0 0 0 6.4V43a6.61 6.61 0 0 0 4.7 6.1v2.6a2.43 2.43 0 0 0 2.4 2.4h5.1a2.43 2.43 0 0 0 2.4-2.4v-2.4h28.9v2.4a2.43 2.43 0 0 0 2.4 2.4H51a2.43 2.43 0 0 0 2.4-2.4V49a6.4 6.4 0 0 0 4.8-6.1V6.4A6.82 6.82 0 0 0 51.3 0zM5.6 10.4a5.59 5.59 0 0 1 5.6-5.6h35.5a5.59 5.59 0 0 1 5.6 5.6v2.1h-3.1v-.2a4.91 4.91 0 0 0-4.9-4.9H13.5a4.91 4.91 0 0 0-4.9 4.9V37a4.91 4.91 0 0 0 4.9 4.9h30.8a4.91 4.91 0 0 0 4.9-4.9v-.4h3.1v2.3a5.59 5.59 0 0 1-5.6 5.6H11.3a5.59 5.59 0 0 1-5.6-5.6V10.4zm46.8 17.7h-3.1v-7h3.1zM35.7 20a4 4 0 1 1 5.3 3.8v8.1a1.4 1.4 0 0 1-2.8 0v-8.2a3.92 3.92 0 0 1-2.5-3.7zm-6.1 4.7a7.8 7.8 0 1 1-7.8-7.8 7.81 7.81 0 0 1 7.8 7.8z"/><path class="alcls-1" d="M16.1 24.7a5.7 5.7 0 1 0 5.7-5.7 5.7 5.7 0 0 0-5.7 5.7zm2.3.1l-1.1-.1c-.2 0-.3-.2-.3-.4s.2-.3.4-.3l1.1.1c.2 0 .3.2.3.4s-.2.3-.4.3zm3.8 4.5a.4.4 0 1 1-.8 0v-1.1a.4.4 0 1 1 .8 0zm3.1-4.7l1.1.1c.2 0 .3.2.3.4s-.2.3-.4.3l-1.1-.1c-.2 0-.3-.2-.3-.4s.2-.3.4-.3zm-.7.1a2.8 2.8 0 1 1-2.8-2.8 2.73 2.73 0 0 1 2.8 2.8zm-2.4-4.6v1.1a.4.4 0 1 1-.8 0v-1.1a.43.43 0 0 1 .4-.4c.2.1.4.2.4.4z"/></g></g></symbol><symbol viewBox="0 0 82.73 62.05" id="outlooks_(4)" xmlns="http://www.w3.org/2000/svg"><defs><style>.amcls-1{fill:#e8b93f}</style></defs><g id="amСлой_2" data-name="Слой 2"><path class="amcls-1" d="M57.91 30.61V7.45H24.82v23.16zM27.3 9.1h10.75v5H27.3zm9.1 4.14h.83V9.93h-.83zM9.1 44.67h.83v-3.31H9.1zm-1.65 0h.83v-3.31h-.83zM60.39 0H22.34v6.62h38.05zM28.13 13.24H29V9.93h-.83zm1.65 0h.83V9.93h-.83zm-19 31.44h.83v-3.32h-.83zm22.31-31.44h.83V9.93h-.83zm1.65 0h.83V9.93h-.83zm-3.31 0h.83V9.93h-.83zM5.79 44.67h.83v-3.31h-.83zm51.29 0h.83v-3.31h-.83zm-3.31 0h.83v-3.31h-.83zm1.65 0h.83v-3.31h-.83zM47.15 62h33.1V38.88h-33.1zm2.48-21.51h10.76v5H49.64zm-5-9.1v6.62h38.1v-6.57zM12.41 44.67h.83v-3.31h-.83zM2.48 62h33.09V38.88H2.48zM5 40.54h10.72v5H5zm47.15 4.14h.83v-3.32h-.83zm-1.65 0h.83v-3.32h-.83zM0 38.05h38.05v-6.61H0zm14.06 6.62h.83v-3.31h-.83zm44.67 0h.83v-3.31h-.83z" id="amСлой_3" data-name="Слой 3"/></g></symbol><symbol viewBox="0 0 28 43" id="scroll" xmlns="http://www.w3.org/2000/svg"><defs><style>.ancls-1{fill:#fff}.ancls-2{fill:#e8b93f;fill-rule:evenodd}</style></defs><g id="anСлой_2" data-name="Слой 2"><g id="anСлой_1-2" data-name="Слой 1"><path class="ancls-1" d="M14 0A14 14 0 0 0 0 14v15a14 14 0 0 0 28 0V14A14 14 0 0 0 14 0zm11.37 29a11.37 11.37 0 1 1-22.74 0V14a11.37 11.37 0 1 1 22.73 0z"/><path class="ancls-2" d="M14 21a8 8 0 1 1-8 8 8 8 0 0 1 8-8z"/></g></g></symbol><symbol viewBox="0 0 111 65" id="services_(1)" xmlns="http://www.w3.org/2000/svg"><defs><style>.aocls-1{fill:#e8b93f}</style></defs><g id="aoСлой_2" data-name="Слой 2"><path class="aocls-1" d="M88.61 33.41L55.5 43.7 22.39 33.41V50.6c0 8 14.83 14.4 33.12 14.4s33.12-6.45 33.12-14.4v-.19zm0-3.75L111 21.57 55.5 0 0 21.57l11.83 4.27 1-2.18 4.35-.37.62.65-3.73.89-.54 1.63S5.11 44.25 6.34 53c0 0 5.26 3.17 10.51 0l1.4-23.79v-2l7.82-1.78-.55 1.37-5.83 1.92 2.7 1L55.5 40z" id="aoСлой_1-2" data-name="Слой 1"/></g></symbol><symbol viewBox="0 0 68 68" id="services_(2)" xmlns="http://www.w3.org/2000/svg"><defs><style>.apcls-1{fill:#e8b93f}</style></defs><g id="apСлой_2" data-name="Слой 2"><path class="apcls-1" d="M65.16 30.6h-4v-8.24a3.1 3.1 0 0 0-3.1-3.1h-1.39V0H11.33v2.27h-3.4v2.26h-3.4v6.8H3.1a3.1 3.1 0 0 0-3.1 3.1v51.26h.07a2.91 2.91 0 0 0 .53 1.17A2.88 2.88 0 0 0 2.91 68h50.72a2.88 2.88 0 0 0 2.78-2.06L68 34.17V34c0-2-1.2-3.4-2.84-3.4zM20.4 5.67h11.33a1.13 1.13 0 1 1 0 2.27H20.4a1.13 1.13 0 1 1 0-2.27zm0 7.93h27.2a1.13 1.13 0 0 1 0 2.27H20.4a1.13 1.13 0 0 1 0-2.27zm0 7.93h27.2a1.13 1.13 0 1 1 0 2.27H20.4a1.13 1.13 0 1 1 0-2.27zM2.27 58.4v-44a.83.83 0 0 1 .83-.83h1.43v38.61zM6.8 6.8h1.13v36.05L6.8 46zm52.13 23.8h-44.5a2.88 2.88 0 0 0-2.78 2.06l-1.45 4V4.53h1.13v24.94h45.34v-7.94h1.43a.83.83 0 0 1 .83.83z" id="apСлой_1-2" data-name="Слой 1"/></g></symbol><symbol viewBox="0 0 68 68" id="services_(3)" xmlns="http://www.w3.org/2000/svg"><defs><style>.aqcls-1{fill:#e8b93f}</style></defs><g id="aqСлой_2" data-name="Слой 2"><path class="aqcls-1" d="M0 68h68v-4.24H0zm64.08-44.07H3.92v4.24h60.16zM34 0L0 16.3v3.61h68V16.3zM18.31 59.75V32H9.76v27.7zm39.93 0V32h-8.55v27.7zm-20 0V32h-8.52v27.7z" id="aqСлой_1-2" data-name="Слой 1"/></g></symbol><symbol viewBox="0 0 77 54" id="services_(4)" xmlns="http://www.w3.org/2000/svg"><defs><style>.arcls-1{fill:#e8b93f}</style></defs><g id="arСлой_2" data-name="Слой 2"><path class="arcls-1" d="M1.58 37.07h39.87A1.09 1.09 0 0 0 42.53 36V3.29A3.27 3.27 0 0 0 39.28 0H3.75A3.27 3.27 0 0 0 .5 3.29V36a1.09 1.09 0 0 0 1.08 1.07zm8-22A1.35 1.35 0 0 1 11 13.69h10.59V9.85a1.34 1.34 0 0 1 2.3-1l9.16 9.28a1.37 1.37 0 0 1 0 1.92l-9.16 9.28a1.34 1.34 0 0 1-2.3-1v-3.76H11a1.35 1.35 0 0 1-1.34-1.36zm4.66 30.83H1.08A1.09 1.09 0 0 1 0 44.78v-3.33a1.09 1.09 0 0 1 1.08-1.1h16.19a9.08 9.08 0 0 0-2.99 5.53zm61.64-5.53h-2.6V25.45a8.85 8.85 0 0 0-1.48-4.9l-6.6-9.89A8.64 8.64 0 0 0 58 6.8H47.79A2.18 2.18 0 0 0 45.63 9v31.35H28.88a9 9 0 0 1 3 5.53h17.66a8.88 8.88 0 0 1 17.6 0h8.77a1.09 1.09 0 0 0 1.09-1.1v-3.33a1.09 1.09 0 0 0-1.08-1.1zM65.13 22.52h-13.5a1.09 1.09 0 0 1-1.08-1.1v-7.57a1.09 1.09 0 0 1 1.08-1.1h8.22a1.09 1.09 0 0 1 .89.46L66 20.8a1.1 1.1 0 0 1-.87 1.72zM23.07 40.35a6.83 6.83 0 1 0 6.74 6.83 6.79 6.79 0 0 0-6.74-6.83zm0 10.24a3.41 3.41 0 1 1 3.37-3.41 3.39 3.39 0 0 1-3.37 3.41zm35.28-10.24a6.83 6.83 0 1 0 6.74 6.83 6.78 6.78 0 0 0-6.74-6.83zm0 10.24a3.41 3.41 0 1 1 3.37-3.41 3.39 3.39 0 0 1-3.37 3.41z" id="arСлой_1-2" data-name="Слой 1"/></g></symbol><symbol viewBox="0 0 463.02 471" id="services_(5)" xmlns="http://www.w3.org/2000/svg"><defs><style>.ascls-1{fill:#e8b93f}</style></defs><g id="asСлой_2" data-name="Слой 2"><g id="asСлой_1-2" data-name="Слой 1"><path class="ascls-1" d="M87.82 239.5a16 16 0 0 0 16 16h255.42a16 16 0 1 0 0-31.93H103.78a16 16 0 0 0-15.96 15.93z"/><path class="ascls-1" d="M391.18 247.48h7.7a111.92 111.92 0 0 1-111.49 103.78h-23.94v-8h-63.87v8h-23.95A111.92 111.92 0 0 1 64.15 247.48h7.7v-16H47.9v8a127.88 127.88 0 0 0 127.73 127.75h23.95v8h63.87v-8h23.95A127.88 127.88 0 0 0 415.13 239.5v-8h-23.95zM327.31 23.95A23.95 23.95 0 1 1 303.36 0a24 24 0 0 1 23.95 23.95zM79.83 87.82a23.95 23.95 0 1 1-23.95-23.95 24 24 0 0 1 23.95 23.95zM463 183.61a23.95 23.95 0 1 1-23.95-23.95A24 24 0 0 1 463 183.61zM423.11 95.8a16 16 0 1 1-16-16 16 16 0 0 1 16 16zM31.93 191.6a16 16 0 1 1-16-16 16 16 0 0 1 16 16zM167.65 31.93a16 16 0 1 1-16-16 16 16 0 0 1 16 16zm159.66 39.92h16v16h-16zM79.83 16h16v16h-16zM63.87 143.7h16v16h-16zm311.34 31.93h16v16h-16z"/><path class="ascls-1" d="M287.39 335.29a95.15 95.15 0 0 0 51.08-14.91l3.63-49H120.93l3.63 49a95.15 95.15 0 0 0 51.08 14.91h8v-8h95.8v8zm-7.98 47.9v8h-95.8v-8h-8a142.86 142.86 0 0 1-47-8.06l6 81.08A16 16 0 0 0 150.54 471h161.94a16 16 0 0 0 15.93-14.79l6-81.08a142.86 142.86 0 0 1-47 8.06zm58.03-195.04a39.69 39.69 0 0 0-42.77-59.41c-.07-.37-.22-.71-.3-1.08l.2.07A39.89 39.89 0 0 0 276 101.54c-.12-.08-.24-.19-.37-.27a39.54 39.54 0 0 0-5.16-2.48c-.37-.15-.7-.37-1.09-.5a40.28 40.28 0 0 0-5.19-1.44c-.53-.12-1-.33-1.56-.42a40.26 40.26 0 0 0-7.15-.65 39.71 39.71 0 0 0-23.95 8l.18.07-.18.11a39.64 39.64 0 0 0-63.16 24.78 39.7 39.7 0 0 0-42.77 59.4 40.32 40.32 0 0 0-18.41 19.42h248.66a40.29 40.29 0 0 0-18.41-19.41zm-169.79-20.5h-16v-16h16zm63.87-16h-16v-16h16zm39.92 47.9h-16v-16h16zm39.92-23.95h-16v-16h16z"/></g></g></symbol><symbol viewBox="0 0 75 64.01" id="services_(6)" xmlns="http://www.w3.org/2000/svg"><defs><style>.atcls-1{fill:#e8b93f}</style></defs><g id="atСлой_2" data-name="Слой 2"><path class="atcls-1" d="M2.76 13.42A9 9 0 0 0 0 20v34.67a9 9 0 0 0 2.76 6.58A9 9 0 0 0 9.38 64h1.34V10.67H9.38a9 9 0 0 0-6.62 2.75zM53.57 4a3.85 3.85 0 0 0-1.17-2.83A3.88 3.88 0 0 0 49.55 0h-24.1a3.88 3.88 0 0 0-2.85 1.17A3.85 3.85 0 0 0 21.43 4v6.67h-6.7V64h45.54V10.67h-6.7zM26.79 5.33h21.42v5.33H26.79zm26.41 37a1.31 1.31 0 0 1-1 .37h-9.34V52a1.29 1.29 0 0 1-1.34 1.33h-8A1.28 1.28 0 0 1 32.14 52v-9.33h-9.37a1.31 1.31 0 0 1-1-.37 1.3 1.3 0 0 1-.38-1v-8a1.29 1.29 0 0 1 1.38-1.3h9.38v-9.33a1.29 1.29 0 0 1 1.34-1.33h8a1.29 1.29 0 0 1 1.34 1.33V32h9.38a1.29 1.29 0 0 1 1.34 1.33v8a1.3 1.3 0 0 1-.36.97zm19-28.88a9 9 0 0 0-6.61-2.75h-1.3V64h1.34A9.41 9.41 0 0 0 75 54.67V20a9 9 0 0 0-2.76-6.58z" id="atСлой_3" data-name="Слой 3"/></g></symbol><symbol viewBox="0 0 358.98 299.8" id="services_(7)" xmlns="http://www.w3.org/2000/svg"><defs><style>.aucls-1{fill:#e8b93f}</style></defs><g id="auСлой_2" data-name="Слой 2"><g id="auLayer_1" data-name="Layer 1"><g id="au_Группа_" data-name="&lt;Группа>"><g id="au_Группа_2" data-name="&lt;Группа>"><path id="au_Контур_" data-name="&lt;Контур>" class="aucls-1" d="M148.47 179.14c-.41-.33-.62-.64-1-1 3.09 2.45 5.66 5.21 10.12 8.3v-27.82L149 178.31c-.08.29-.39.57-.53.83z"/><path id="au_Контур_2" data-name="&lt;Контур>" class="aucls-1" d="M210 178l-9.34-22.85v32.66l-.19-.36c3.6-3.16 6.83-5.9 9.95-8.87-.12-.04-.27-.27-.42-.58z"/><ellipse id="au_Контур_3" data-name="&lt;Контур>" class="aucls-1" cx="133.3" cy="26.98" rx="25.6" ry="26.98"/><ellipse id="au_Контур_4" data-name="&lt;Контур>" class="aucls-1" cx="228.92" cy="26.98" rx="25.6" ry="26.98"/><g id="au_Группа_3" data-name="&lt;Группа>"><path id="au_Составной_контур_" data-name="&lt;Составной контур>" class="aucls-1" d="M273.42 65.44a11.7 11.7 0 0 0-3-4.4 8.18 8.18 0 0 0-6-2.89h-70.95a8.18 8.18 0 0 0-6 2.89 11.45 11.45 0 0 0-3 4.34l-3.31 8.41-3.31-8.36a11.66 11.66 0 0 0-3-4.39 8.17 8.17 0 0 0-6-2.88H97.86a8.18 8.18 0 0 0-6 2.89 11.45 11.45 0 0 0-3 4.34L63.2 130.24q3.34 3.27 7.14 7.34c1.52 1.63 3.33 3.66 5.29 5.84s4.68 5.24 7.48 8.2c.06-.13.31-.25.36-.38l19.11-48.64v58.27h.17c4.68.44 9.88.94 15.09 1.84a47.19 47.19 0 0 1 15 5.5l19.6-47.05a10 10 0 0 1 5.41-5.61c.35-.36.81-.94 1.35-.94h39.17s.08.38.12.38a9.76 9.76 0 0 1 8.1 6.25L226 168.55a46.62 46.62 0 0 1 15.28-5.72c5.2-.9 10.5-1.44 15.18-1.88a96 96 0 0 0 11.08-1.43 19.3 19.3 0 0 0 2.35-1.88l-8.49-50.08 16.55 41.88c2.07-2.24 4-4.42 5.44-6 2-2.18 3.76-4.2 5.28-5.82 3.45-3.68 6.6-6.85 9.49-9.57zm-94.84 46.77c-9.95 0-18-8.5-18-19s8.06-19 18-19 18 8.5 18 19-8.05 19-18 19z"/></g></g><g id="au_Группа_4" data-name="&lt;Группа>"><g id="au_Группа_5" data-name="&lt;Группа>"><g id="au_Группа_6" data-name="&lt;Группа>"><g id="au_Группа_7" data-name="&lt;Группа>"><path id="au_Контур_6" data-name="&lt;Контур>" class="aucls-1" d="M.17 118.45a34.91 34.91 0 0 0 3.2 18.43l27.52 57.94a34.91 34.91 0 0 0 13.2 14.73l48.56 30a34.78 34.78 0 0 1 15.86 22.74l65.65 3.64.73-7.84s6.28-33.95-16-54.18-32.53-27.59-43.15-29.43-22.3-1.9-28.24-3.74-18.87-17.58-25.8-25-22.21-22.65-29.6-22.65S21 125.4 21 129.55 44.57 166 44.57 166l11.55 10.62L40 168.34l-23.14-32.79s-5.09-10.38 0-13.61 8-3 8-3l-2-19.88s.46-26.79-5.08-34.64-11.91-3.25-11.91-3.25z"/><path id="au_Составной_контур_2" data-name="&lt;Составной контур>" class="aucls-1" d="M101 284.09a12.19 12.19 0 0 0 11.5 12.85l51.2 2.84a12.19 12.19 0 0 0 12.85-11.5l.93-16.72-75.55-4.19zm69.11-4.76a4.47 4.47 0 1 1-6.32 0 4.47 4.47 0 0 1 6.33.01z"/></g></g></g><g id="au_Группа_8" data-name="&lt;Группа>"><g id="au_Группа_9" data-name="&lt;Группа>"><g id="au_Группа_10" data-name="&lt;Группа>"><path id="au_Контур_7" data-name="&lt;Контур>" class="aucls-1" d="M358.81 118.45a34.91 34.91 0 0 1-3.2 18.43l-27.52 57.94a34.91 34.91 0 0 1-13.2 14.73l-48.56 30a34.78 34.78 0 0 0-15.86 22.74l-65.65 3.64-.73-7.84s-6.28-33.95 16-54.18 32.53-27.59 43.15-29.43 22.3-1.9 28.24-3.74 18.87-17.58 25.8-25 22.17-22.65 29.56-22.65S338 125.4 338 129.55 314.41 166 314.41 166l-11.55 10.62 16.14-8.28 23.09-32.79s5.09-10.38 0-13.61-8-3-8-3l2-19.88s-.46-26.79 5.08-34.64 11.91-3.25 11.91-3.25z"/><path id="au_Составной_контур_3" data-name="&lt;Составной контур>" class="aucls-1" d="M258 284.09a12.19 12.19 0 0 1-11.5 12.85l-51.2 2.84a12.19 12.19 0 0 1-12.85-11.5l-.93-16.72 75.48-4.19zm-69.11-4.76a4.47 4.47 0 1 0 6.32 0 4.47 4.47 0 0 0-6.35.01z"/></g></g></g></g></g></g></g></symbol><symbol viewBox="0 0 64.01 64.98" id="services_(8)" xmlns="http://www.w3.org/2000/svg"><defs><style>.avcls-1{fill:#e8b93f}</style></defs><g id="avСлой_2" data-name="Слой 2"><path class="avcls-1" d="M31.09 0L0 15.13V65h11.52V24.46h41V65H64V15.13zm-7.26 63.42h7.27v-6.34h-7.27zm8.92 0H40v-6.34h-7.25zm-17.84 0h7.27v-6.34h-7.27zm8.92-8.71h7.27v-6.34h-7.27zm-8.92 0h7.27v-6.34h-7.27zm17.84 0H40v-6.34h-7.25zM23.83 46h7.27v-6.33h-7.27zm-8.92 0h7.27v-6.33h-7.27zm26.76 17.42h7.27v-6.34h-7.27z" id="avСлой_3" data-name="Слой 3"/></g></symbol><symbol viewBox="0 0 12.41 22.18" id="white_arrw" xmlns="http://www.w3.org/2000/svg"><defs><style>.awcls-1{fill:#fff}</style></defs><g id="awСлой_2" data-name="Слой 2"><path class="awcls-1" d="M1.4 21.95a.82.82 0 0 1-.58.23.82.82 0 0 1-.58-.23.76.76 0 0 1 0-1.11l10.19-9.75L.24 1.34a.76.76 0 0 1 0-1.11.85.85 0 0 1 1.16 0l10.77 10.3a.76.76 0 0 1 0 1.11z" id="awСлой_1-2" data-name="Слой 1"/></g></symbol><symbol viewBox="0 0 140 140" id="why_(1)" xmlns="http://www.w3.org/2000/svg"><defs><style>.axcls-1{fill:#e8b93f;fill-rule:evenodd}.axcls-2{fill:#fff}</style></defs><g id="axСлой_2" data-name="Слой 2"><g id="axСлой_3" data-name="Слой 3"><path class="axcls-1" d="M0 0h140v140H0z"/><path class="axcls-2" d="M75.13 30a2.4 2.4 0 1 0 0 4.81 35.71 35.71 0 1 1-35.6 35.89v-4.17l6.73 5.92a2.41 2.41 0 1 0 3.19-3.6l-9.62-8.47a4.13 4.13 0 0 0-5.5 0L24.78 69a2.4 2.4 0 0 0-.17 3.39 2.42 2.42 0 0 0 3.41.17l6.66-6v4.17A40.65 40.65 0 1 0 75.13 30zm15.33 23.1L57.92 85.58A1.68 1.68 0 0 0 60.31 88l32.54-32.52a1.68 1.68 0 1 0-2.38-2.38zm-25 15.51a8 8 0 1 0-8-8 8 8 0 0 0 7.97 8zm0-12.62a4.63 4.63 0 1 1-4.64 4.63A4.64 4.64 0 0 1 65.43 56zm19.87 16.47a8 8 0 1 0 8 8 8 8 0 0 0-8-8zm0 12.62A4.63 4.63 0 1 1 90 80.46a4.64 4.64 0 0 1-4.67 4.62z"/></g></g></symbol><symbol viewBox="0 0 140 140" id="why_(2)" xmlns="http://www.w3.org/2000/svg"><defs><style>.aycls-1{fill:#e8b93f;fill-rule:evenodd}.aycls-2{fill:#fff}</style></defs><g id="ayСлой_2" data-name="Слой 2"><g id="ayСлой_3" data-name="Слой 3"><path class="aycls-1" d="M0 0h140v140H0z"/><path class="aycls-2" d="M57.34 82.31l3.92 8.21A10.4 10.4 0 0 0 66.32 110h.52a10.4 10.4 0 0 0 7.86-16.59L114 74.62l-2.25-4.7-3.32 1.59-16-33.61L54 56.17l16 33.7a10.35 10.35 0 0 0-3.6-.67L38.12 30 25 36.35 27.27 41l8.4-4 19.17 40.09m15.33 26a5.19 5.19 0 1 1-4.1-8.67h.26a5.19 5.19 0 0 1 3.84 8.67zm-9.23-44.46L73 52.89l5.83 12.24 4.71-2.24-5.82-12.24L90 44.84l13.78 28.92-29 13.86z"/></g></g></symbol><symbol viewBox="0 0 140 140" id="why_(3)" xmlns="http://www.w3.org/2000/svg"><defs><style>.azcls-1,.azcls-3{fill:#e8b93f;fill-rule:evenodd}.azcls-2{fill:#fff}.azcls-3{stroke:#fff;stroke-miterlimit:10;stroke-width:4px}</style></defs><g id="azСлой_2" data-name="Слой 2"><g id="azСлой_3" data-name="Слой 3"><path class="azcls-1" d="M0 0h140v140H0z"/><path class="azcls-2" d="M107.34 59.34H106a32.93 32.93 0 0 0-9.63-13.43c-.66-2.31-.17-4.79 1.44-7.37A4.25 4.25 0 0 0 94.27 32h-.53c-6.13.77-9.79 3.58-11.9 6.19a42.38 42.38 0 0 0-11.33-1.53 39.75 39.75 0 0 0-26.39 9.65A31.31 31.31 0 0 0 33.06 70a29.42 29.42 0 0 0 .81 6.89.31.31 0 0 0 0 .12.54.54 0 0 1 0 .1 31 31 0 0 0 2.46 6.62 34.41 34.41 0 0 0 6.29 9.6 15.42 15.42 0 0 1 4.06 9.79v1a1 1 0 0 0 0 .23 4 4 0 0 0 4 3.63H63a4 4 0 0 0 4-4v-.83a44.62 44.62 0 0 0 5.78.08v.77a4 4 0 0 0 4 4h12.3a4 4 0 0 0 4-4v-3a10.33 10.33 0 0 1 3.48-7l.46-.4.12-.1a32.92 32.92 0 0 0 9-13.23h1.16a5.73 5.73 0 0 0 5.7-5.74v-9.38a5.77 5.77 0 0 0-5.66-5.81zm1.73 15a1.74 1.74 0 0 1-1.73 1.75h-2.58a2 2 0 0 0-1.9 1.41 28.75 28.75 0 0 1-8.39 12.9l-.45.4a14.31 14.31 0 0 0-4.8 10v3.11H76.8V101a2 2 0 0 0-2-2 1 1 0 0 0-.21 0 37.25 37.25 0 0 1-4.08.22 38.41 38.41 0 0 1-5.18-.35 2 2 0 0 0-1.57.48 2 2 0 0 0-.68 1.5v3H50.73v-1a19.44 19.44 0 0 0-5.18-12.43A30.82 30.82 0 0 1 39.93 82v-.07a26.78 26.78 0 0 1-2.16-5.81A25.67 25.67 0 0 1 37 70c0-16.15 15-29.3 33.49-29.3a37.75 37.75 0 0 1 11.46 1.76 2 2 0 0 0 2.25-.78c1.47-2.2 4.39-4.94 10-5.66a.24.24 0 0 1 .25.13.21.21 0 0 1 0 .25 13.05 13.05 0 0 0-1.9 10.6v.07a2 2 0 0 0 .74 1.5A29 29 0 0 1 102.72 62a2 2 0 0 0 1.88 1.38h2.72a1.74 1.74 0 0 1 1.73 1.75v9.22z"/><path class="azcls-3" d="M39.86 38.25a12.92 12.92 0 1 1-12.92 12.92 12.92 12.92 0 0 1 12.92-12.92z"/></g></g></symbol><symbol viewBox="0 0 12.41 22.18" id="yellow_arrw" xmlns="http://www.w3.org/2000/svg"><defs><style>.bacls-1{fill:#e8b93f}</style></defs><g id="baСлой_2" data-name="Слой 2"><path class="bacls-1" d="M1.4 21.95a.82.82 0 0 1-.58.23.82.82 0 0 1-.58-.23.76.76 0 0 1 0-1.11l10.19-9.75L.24 1.34a.76.76 0 0 1 0-1.11.85.85 0 0 1 1.16 0l10.77 10.3a.76.76 0 0 1 0 1.11z" id="baСлой_1-2" data-name="Слой 1"/></g></symbol></svg>