<svg xmlns="http://www.w3.org/2000/svg" viewBox="0 0 140 140"><defs><style>.cls-1{fill:#e8b93f;fill-rule:evenodd;}.cls-2{fill:#fff;}</style></defs><title>Ресурс 21</title><g id="Слой_2" data-name="Слой 2"><g id="Слой_3" data-name="Слой 3"><path class="cls-1" d="M0,0H140V140H0Z"/><path class="cls-2" d="M75.13,30a2.4,2.4,0,1,0,0,4.81A35.71,35.71,0,1,1,39.53,70.7l0-4.17,6.73,5.92a2.41,2.41,0,1,0,3.19-3.6l-9.62-8.47a4.13,4.13,0,0,0-5.5,0L24.78,69a2.4,2.4,0,0,0-.17,3.39,2.42,2.42,0,0,0,3.41.17l6.66-6,0,4.17A40.65,40.65,0,1,0,75.13,30ZM90.46,53.1,57.92,85.58A1.68,1.68,0,0,0,60.31,88L92.85,55.48a1.68,1.68,0,1,0-2.38-2.38Zm-25,15.51a8,8,0,1,0-8-8A8,8,0,0,0,65.43,68.61Zm0-12.62a4.63,4.63,0,1,1-4.64,4.63A4.64,4.64,0,0,1,65.43,56ZM85.33,72.46a8,8,0,1,0,8,8A8,8,0,0,0,85.33,72.46Zm0,12.62A4.63,4.63,0,1,1,90,80.46,4.64,4.64,0,0,1,85.33,85.08Z"/></g></g></svg>