<svg xmlns="http://www.w3.org/2000/svg" viewBox="0 0 140 140"><defs><style>.cls-1{fill:#e8b93f;fill-rule:evenodd;}.cls-2{fill:#fff;}</style></defs><title>Ресурс 19</title><g id="Слой_2" data-name="Слой 2"><g id="Слой_3" data-name="Слой 3"><path class="cls-1" d="M0,0H140V140H0Z"/><path class="cls-2" d="M57.34,82.31l3.92,8.21A10.4,10.4,0,0,0,66.32,110h.52A10.4,10.4,0,0,0,74.7,93.41L114,74.62l-2.25-4.7-3.32,1.59-16-33.61L54,56.17,70,89.87h0a10.35,10.35,0,0,0-3.6-.67L38.12,30,25,36.35,27.27,41,35.67,37,54.84,77.09m15.33,26a5.19,5.19,0,1,1-4.1-8.67h.26a5.19,5.19,0,0,1,3.84,8.67ZM60.94,58.63,73,52.89l5.83,12.24,4.71-2.24L77.72,50.65,90,44.84l13.78,28.92-29,13.86Z"/></g></g></svg>