<svg xmlns="http://www.w3.org/2000/svg" viewBox="0 0 140 140"><defs><style>.cls-1,.cls-3{fill:#e8b93f;fill-rule:evenodd;}.cls-2{fill:#fff;}.cls-3{stroke:#fff;stroke-miterlimit:10;stroke-width:4px;}</style></defs><title>Ресурс 20</title><g id="Слой_2" data-name="Слой 2"><g id="Слой_3" data-name="Слой 3"><path class="cls-1" d="M0,0H140V140H0Z"/><path class="cls-2" d="M107.34,59.34H106a32.93,32.93,0,0,0-9.63-13.43v0c-.66-2.31-.17-4.79,1.44-7.37A4.25,4.25,0,0,0,94.27,32c-.18,0-.36,0-.53,0-6.13.77-9.79,3.58-11.9,6.19a42.38,42.38,0,0,0-11.33-1.53,39.75,39.75,0,0,0-26.39,9.65A31.31,31.31,0,0,0,33.06,70a29.42,29.42,0,0,0,.81,6.89.31.31,0,0,0,0,.12.54.54,0,0,1,0,.1,31,31,0,0,0,2.46,6.62,34.41,34.41,0,0,0,6.29,9.6,15.42,15.42,0,0,1,4.06,9.79v1a1,1,0,0,0,0,.23,4,4,0,0,0,4,3.63H63a4,4,0,0,0,4-4v-.83a44.62,44.62,0,0,0,5.78.08V104a4,4,0,0,0,4,4h12.3a4,4,0,0,0,4-4v-3a10.33,10.33,0,0,1,3.48-7l.46-.4,0,0,.12-.1a32.92,32.92,0,0,0,9-13.23h1.16a5.73,5.73,0,0,0,5.7-5.74V65.15A5.77,5.77,0,0,0,107.34,59.34Zm1.73,15a1.74,1.74,0,0,1-1.73,1.75h-2.58a2,2,0,0,0-1.9,1.41,28.75,28.75,0,0,1-8.39,12.9l0,0,0,0-.45.4s0,0,0,0a14.31,14.31,0,0,0-4.8,10v3.11a0,0,0,0,1,0,0H76.8a0,0,0,0,1,0,0V101a2,2,0,0,0-2-2,1,1,0,0,0-.21,0,37.25,37.25,0,0,1-4.08.22,38.41,38.41,0,0,1-5.18-.35,2,2,0,0,0-1.57.48,2,2,0,0,0-.68,1.5v3a0,0,0,0,1,0,0H50.73a0,0,0,0,1,0,0h0v-1a19.44,19.44,0,0,0-5.18-12.43A30.82,30.82,0,0,1,39.93,82s0,0,0-.07a26.78,26.78,0,0,1-2.16-5.81s0,0,0,0v0A25.67,25.67,0,0,1,37,70C37,53.85,52,40.7,70.49,40.7a37.75,37.75,0,0,1,11.46,1.76,2,2,0,0,0,2.25-.78c1.47-2.2,4.39-4.94,10-5.66a.24.24,0,0,1,.25.13.21.21,0,0,1,0,.25A13.05,13.05,0,0,0,92.55,47s0,0,0,.07a2,2,0,0,0,.74,1.5A29,29,0,0,1,102.72,62a2,2,0,0,0,1.88,1.38h2.72a1.74,1.74,0,0,1,1.73,1.75v9.22Z"/><path class="cls-3" d="M39.86,38.25A12.92,12.92,0,1,1,26.94,51.17,12.92,12.92,0,0,1,39.86,38.25Z"/></g></g></svg>